<svg xmlns="http://www.w3.org/2000/svg" xmlns:xlink="http://www.w3.org/1999/xlink" width="1344" zoomAndPan="magnify" viewBox="0 0 1008 1295.99994" height="1728" preserveAspectRatio="xMidYMid meet" version="1.0"><defs><clipPath id="08dacedb49"><path d="M 145 235 L 862 235 L 862 981.117188 L 145 981.117188 Z M 145 235 " clip-rule="nonzero"/></clipPath><clipPath id="d9e4683a8e"><path d="M 626 907 L 731 907 L 731 981.117188 L 626 981.117188 Z M 626 907 " clip-rule="nonzero"/></clipPath><clipPath id="0d6fcca951"><path d="M 444 862 L 627 862 L 627 981.117188 L 444 981.117188 Z M 444 862 " clip-rule="nonzero"/></clipPath></defs><rect x="-100.8" width="1209.6" fill="#ffffff" y="-129.599994" height="1555.199927" fill-opacity="1"/><rect x="-100.8" width="1209.6" fill="#ffffff" y="-129.599994" height="1555.199927" fill-opacity="1"/><g clip-path="url(#08dacedb49)"><path fill="#e4e8f4" d="M 861.007812 805.476562 L 861.007812 818.378906 C 861.007812 820.394531 859.453125 822.574219 856.808594 824.128906 L 740.972656 891.429688 C 735.375 894.691406 726.203125 894.691406 720.605469 891.429688 L 615.808594 831.117188 L 615.808594 841.84375 L 730.089844 907.898438 L 730.089844 921.109375 L 626.691406 981.101562 L 444.308594 875.886719 L 444.308594 862.515625 L 547.550781 802.523438 L 558.589844 808.890625 L 558.589844 798.015625 L 494.53125 761.027344 L 292.558594 877.59375 L 159.617188 800.34375 L 159.152344 786.519531 L 223.523438 749.371094 L 241.871094 698.074219 L 145.9375 642.433594 L 145.46875 476.910156 L 187.605469 452.507812 C 214.347656 372.929688 271.101562 295.992188 337.179688 257.917969 C 383.359375 231.183594 425.1875 228.699219 455.351562 246.261719 L 499.972656 272.214844 L 529.359375 255.277344 L 653.59375 327.398438 L 654.058594 492.921875 L 611.765625 517.167969 C 601.660156 547.628906 587.042969 577.621094 569.164062 605.292969 C 585.179688 613.214844 600.882812 621.917969 616.429688 630.625 C 618.609375 631.710938 620.785156 633.113281 621.871094 635.285156 C 622.027344 635.90625 622.183594 636.527344 622.183594 637 C 624.984375 635.753906 627.9375 634.507812 630.734375 635.441406 C 631.667969 637.773438 629.335938 640.261719 627.003906 641.660156 C 626.539062 642.128906 625.757812 642.59375 625.914062 643.214844 C 625.914062 643.675781 626.382812 643.988281 627.003906 644.300781 C 630.269531 646.167969 634 647.25 637.265625 649.429688 C 640.53125 651.296875 643.484375 654.710938 643.175781 658.445312 C 643.175781 659.066406 642.863281 659.691406 642.398438 660.464844 C 665.875 671.5 689.664062 682.382812 713.453125 692.792969 C 715.007812 693.566406 716.71875 694.347656 717.652344 695.90625 C 718.273438 697.148438 718.273438 698.546875 718.273438 699.789062 C 718.117188 703.828125 717.496094 707.714844 716.5625 711.597656 L 760.097656 736.78125 L 760.097656 741.128906 C 761.808594 741.910156 763.519531 742.683594 765.230469 743.304688 C 766.472656 743.777344 767.714844 744.238281 768.960938 744.703125 L 771.449219 743.304688 L 777.667969 746.878906 C 778.445312 746.570312 779.066406 746.105469 779.84375 745.945312 C 781.089844 745.636719 782.175781 745.636719 783.578125 745.636719 C 784.976562 745.796875 786.375 745.796875 787.773438 746.257812 C 790.105469 746.878906 791.972656 748.589844 792.90625 750.925781 C 794.460938 752.164062 795.394531 754.1875 795.394531 757.140625 L 851.988281 789.78125 L 851.988281 796.769531 L 856.652344 799.410156 C 859.765625 801.121094 861.007812 803.457031 860.851562 805.785156 C 860.851562 805.628906 861.007812 805.476562 861.007812 805.476562 Z M 861.007812 805.476562 " fill-opacity="1" fill-rule="nonzero"/></g><path fill="#d4dae8" d="M 159.097656 786.550781 L 159.621094 800.304688 L 292.566406 877.53125 L 292.042969 863.777344 Z M 159.097656 786.550781 " fill-opacity="1" fill-rule="nonzero"/><path fill="#bac1ce" d="M 292.042969 863.777344 L 292.566406 877.53125 L 613.445312 692.34375 L 612.921875 678.589844 Z M 292.042969 863.777344 " fill-opacity="1" fill-rule="nonzero"/><path fill="#e4e8f4" d="M 159.097656 786.550781 L 292.042969 863.777344 L 612.921875 678.589844 L 479.976562 601.363281 Z M 159.097656 786.550781 " fill-opacity="1" fill-rule="nonzero"/><path fill="#d4dae8" d="M 356.46875 826.84375 L 223.542969 749.371094 L 270.394531 617.933594 L 392.347656 688.777344 Z M 356.46875 826.84375 " fill-opacity="1" fill-rule="nonzero"/><path fill="#a0a6b1" d="M 392.347656 688.777344 L 270.394531 617.933594 L 407.085938 539.046875 L 529.039062 609.890625 Z M 392.347656 688.777344 " fill-opacity="1" fill-rule="nonzero"/><path fill="#bac1ce" d="M 529.039062 609.890625 L 565.625 706.132812 L 356.46875 826.84375 L 392.347656 688.777344 Z M 529.039062 609.890625 " fill-opacity="1" fill-rule="nonzero"/><path fill="#dddddd" d="M 338.113281 609.398438 C 415.226562 564.894531 477.707031 456.714844 477.457031 368.144531 C 518.832031 392.175781 560.203125 416.210938 601.578125 440.246094 C 601.828125 528.820312 539.347656 637 462.234375 681.503906 C 424.996094 659.871094 375.347656 631.03125 338.113281 609.398438 Z M 338.113281 609.398438 " fill-opacity="1" fill-rule="nonzero"/><path fill="#dddddd" d="M 477.457031 368.144531 C 477.332031 324.113281 461.730469 293.089844 436.597656 278.488281 L 560.71875 350.59375 C 585.851562 365.195312 601.453125 396.214844 601.578125 440.246094 C 560.203125 416.210938 518.832031 392.175781 477.457031 368.144531 Z M 477.457031 368.144531 " fill-opacity="1" fill-rule="nonzero"/><path fill="#576cfb" d="M 429.230469 291.175781 L 553.351562 363.277344 C 576.609375 376.792969 591.0625 405.492188 591.175781 446.25 C 591.410156 528.148438 533.503906 628.40625 462.199219 669.554688 L 338.078125 597.453125 C 409.382812 556.300781 467.289062 456.042969 467.054688 374.144531 C 466.941406 333.390625 452.488281 304.6875 429.230469 291.175781 Z M 429.230469 291.175781 " fill-opacity="1" fill-rule="nonzero"/><path fill="#e4e8f4" d="M 611.367188 351.691406 L 487.246094 279.585938 L 529.414062 255.253906 L 653.535156 327.355469 Z M 611.367188 351.691406 " fill-opacity="1" fill-rule="nonzero"/><path fill="#dddddd" d="M 238.574219 619.074219 C 264.03125 633.867188 299.28125 631.8125 338.113281 609.398438 L 462.234375 681.503906 C 423.402344 703.914062 388.152344 705.96875 362.695312 691.179688 C 325.457031 669.546875 275.808594 640.707031 238.574219 619.074219 Z M 238.574219 619.074219 " fill-opacity="1" fill-rule="nonzero"/><path fill="#576cfb" d="M 370.078125 678.5 L 245.957031 606.394531 C 269.519531 620.082031 302.136719 618.195312 338.078125 597.453125 L 462.199219 669.554688 C 426.257812 690.300781 393.640625 692.1875 370.078125 678.5 Z M 370.078125 678.5 " fill-opacity="1" fill-rule="nonzero"/><path fill="#d4dae8" d="M 563.03125 462.457031 C 563.175781 494.582031 551.875 530.234375 533.679688 561.917969 C 515.332031 593.457031 490.089844 621.183594 462.058594 637.320312 C 434.027344 653.460938 408.492188 655.074219 390 644.363281 C 352.726562 622.652344 303.121094 593.898438 265.84375 572.1875 C 284.335938 582.898438 309.871094 581.429688 338.050781 565.148438 C 365.933594 549.007812 391.175781 521.429688 409.519531 489.742188 C 427.71875 458.058594 439.019531 422.550781 439.019531 390.425781 C 438.871094 358.449219 427.570312 335.855469 409.375 325.289062 L 533.53125 397.464844 C 551.730469 408.03125 563.03125 430.472656 563.03125 462.457031 Z M 563.03125 462.457031 " fill-opacity="1" fill-rule="nonzero"/><path fill="#d4dae8" d="M 344.09375 723.460938 L 219.972656 651.359375 C 207.015625 643.832031 196.191406 632.621094 188.066406 618.058594 L 312.1875 690.160156 C 320.3125 704.726562 331.136719 715.9375 344.09375 723.460938 Z M 344.09375 723.460938 " fill-opacity="1" fill-rule="nonzero"/><path fill="#c1c1c1" d="M 409.351562 325.34375 L 533.472656 397.449219 C 515.058594 386.75 489.574219 388.242188 461.449219 404.472656 L 337.328125 332.371094 C 365.453125 316.136719 390.9375 314.648438 409.351562 325.34375 Z M 409.351562 325.34375 " fill-opacity="1" fill-rule="nonzero"/><path fill="#c1c1c1" d="M 390.035156 644.328125 L 265.914062 572.222656 C 247.730469 561.660156 236.457031 539.203125 236.367188 507.28125 C 236.183594 443.027344 281.386719 364.652344 337.328125 332.371094 L 461.449219 404.472656 C 405.507812 436.757812 360.304688 515.132812 360.488281 579.382812 C 360.578125 611.304688 371.851562 633.765625 390.035156 644.328125 Z M 390.035156 644.328125 " fill-opacity="1" fill-rule="nonzero"/><path fill="#dddddd" d="M 245.957031 606.398438 C 222.710938 592.894531 208.277344 564.230469 208.164062 523.558594 C 249.539062 547.59375 290.910156 571.628906 332.285156 595.660156 C 332.398438 636.335938 346.832031 664.996094 370.078125 678.5 C 332.84375 656.871094 283.195312 628.027344 245.957031 606.398438 Z M 245.957031 606.398438 " fill-opacity="1" fill-rule="nonzero"/><path fill="#dddddd" d="M 337.234375 300.085938 C 373.105469 279.382812 405.679688 277.496094 429.226562 291.175781 L 553.347656 363.277344 C 529.800781 349.601562 497.226562 351.488281 461.355469 372.1875 C 424.117188 350.558594 374.46875 321.714844 337.234375 300.085938 Z M 337.234375 300.085938 " fill-opacity="1" fill-rule="nonzero"/><path fill="#576cfb" d="M 436.597656 278.488281 L 560.71875 350.59375 C 535.289062 335.820312 500.105469 337.859375 461.320312 360.242188 L 337.199219 288.140625 C 375.984375 265.757812 411.167969 263.71875 436.597656 278.488281 Z M 436.597656 278.488281 " fill-opacity="1" fill-rule="nonzero"/><path fill="#bac1ce" d="M 369.75 338.09375 C 425.6875 305.8125 471.1875 331.839844 471.367188 396.09375 C 471.550781 460.347656 426.347656 538.609375 370.410156 570.894531 C 314.46875 603.175781 268.972656 577.257812 268.789062 513.003906 C 268.609375 448.753906 313.808594 370.378906 369.75 338.09375 Z M 369.75 338.09375 " fill-opacity="1" fill-rule="nonzero"/><path fill="#dddddd" d="M 208.164062 523.558594 C 207.929688 441.542969 265.835938 341.292969 337.234375 300.085938 L 461.355469 372.1875 C 389.957031 413.394531 332.050781 513.644531 332.285156 595.660156 C 290.910156 571.628906 249.539062 547.59375 208.164062 523.558594 Z M 208.164062 523.558594 " fill-opacity="1" fill-rule="nonzero"/><path fill="#576cfb" d="M 362.699219 691.179688 L 238.578125 619.078125 C 213.476562 604.496094 197.886719 573.535156 197.761719 529.5625 C 197.511719 440.980469 260.085938 332.644531 337.199219 288.140625 L 461.320312 360.242188 C 384.207031 404.746094 321.632812 513.085938 321.882812 601.664062 C 322.007812 645.636719 337.597656 676.597656 362.699219 691.179688 Z M 362.699219 691.179688 " fill-opacity="1" fill-rule="nonzero"/><path fill="#576cfb" d="M 461.320312 360.242188 C 538.4375 315.738281 601.328125 351.667969 601.578125 440.246094 C 601.828125 528.820312 539.347656 637 462.234375 681.503906 C 385.117188 726.007812 322.136719 690.238281 321.882812 601.664062 C 321.632812 513.085938 384.207031 404.746094 461.320312 360.242188 Z M 462.199219 669.554688 C 533.503906 628.40625 591.410156 528.148438 591.175781 446.25 C 590.945312 364.234375 532.660156 331.035156 461.355469 372.1875 C 389.957031 413.394531 332.050781 513.644531 332.285156 595.660156 C 332.515625 677.5625 390.800781 710.761719 462.199219 669.554688 " fill-opacity="1" fill-rule="nonzero"/><path fill="#cad0dd" d="M 461.355469 372.1875 C 532.660156 331.035156 590.945312 364.234375 591.175781 446.25 C 591.410156 528.148438 533.503906 628.40625 462.199219 669.554688 C 390.800781 710.761719 332.515625 677.5625 332.285156 595.660156 C 332.050781 513.644531 389.957031 413.394531 461.355469 372.1875 Z M 462.105469 637.273438 C 518.046875 604.988281 563.25 526.726562 563.066406 462.472656 C 562.882812 398.21875 517.386719 372.191406 461.445312 404.472656 C 405.507812 436.757812 360.304688 515.132812 360.488281 579.386719 C 360.671875 643.636719 406.167969 669.554688 462.105469 637.273438 " fill-opacity="1" fill-rule="nonzero"/><path fill="#d4dae8" d="M 455.363281 246.320312 L 579.484375 318.421875 C 549.253906 300.863281 507.417969 303.34375 461.234375 329.996094 C 395.179688 368.121094 338.425781 445.070312 311.71875 524.628906 L 187.597656 452.523438 C 214.304688 372.964844 271.058594 296.015625 337.113281 257.894531 C 383.296875 231.238281 425.132812 228.757812 455.363281 246.320312 Z M 455.363281 246.320312 " fill-opacity="1" fill-rule="nonzero"/><path fill="#d4dae8" d="M 270.023438 714.496094 L 145.902344 642.390625 L 145.429688 476.859375 L 269.550781 548.960938 Z M 270.023438 714.496094 " fill-opacity="1" fill-rule="nonzero"/><path fill="#cad0dd" d="M 611.367188 351.691406 L 653.535156 327.355469 L 654.003906 492.886719 L 611.839844 517.222656 C 585.128906 596.78125 528.285156 673.785156 462.320312 711.855469 C 396.261719 749.980469 339.261719 738.675781 312.1875 690.160156 L 270.023438 714.496094 L 269.550781 548.960938 L 311.71875 524.628906 C 338.425781 445.070312 395.179688 368.121094 461.234375 329.996094 C 527.199219 291.925781 584.296875 303.171875 611.367188 351.691406 Z M 462.234375 681.503906 C 539.347656 637 601.828125 528.820312 601.578125 440.246094 C 601.328125 351.667969 538.4375 315.738281 461.320312 360.242188 C 384.207031 404.746094 321.632812 513.085938 321.882812 601.664062 C 322.136719 690.238281 385.117188 726.007812 462.234375 681.503906 " fill-opacity="1" fill-rule="nonzero"/><path fill="#6eba6e" d="M 611.304688 382.957031 L 611.324219 453.273438 L 642.875 435.0625 L 642.855469 364.75 Z M 611.304688 382.957031 " fill-opacity="1" fill-rule="nonzero"/><path fill="#e4e8f4" d="M 269.550781 548.960938 L 145.429688 476.859375 L 187.597656 452.523438 L 311.71875 524.628906 Z M 269.550781 548.960938 " fill-opacity="1" fill-rule="nonzero"/><path fill="#5b5e71" d="M 457.476562 288.308594 C 466.964844 293.785156 467.015625 302.660156 457.601562 308.128906 C 448.175781 313.605469 432.84375 313.605469 423.355469 308.128906 C 413.878906 302.660156 413.832031 293.785156 423.257812 288.308594 C 432.671875 282.839844 448 282.839844 457.476562 288.308594 Z M 457.476562 288.308594 " fill-opacity="1" fill-rule="nonzero"/><path fill="#e63044" d="M 462.289062 274.457031 L 462.289062 296.839844 C 462.308594 300.082031 460.183594 303.308594 455.925781 305.785156 C 447.417969 310.738281 433.582031 310.738281 425.003906 305.785156 C 420.730469 303.328125 418.578125 300.082031 418.558594 296.839844 C 418.558594 296.816406 418.558594 296.816406 418.558594 296.796875 L 418.558594 274.457031 C 418.558594 262.398438 428.339844 252.601562 440.421875 252.601562 C 446.476562 252.601562 451.9375 255.054688 455.882812 259 C 459.851562 262.96875 462.289062 268.429688 462.289062 274.457031 Z M 462.289062 274.457031 " fill-opacity="1" fill-rule="nonzero"/><path fill="#e63044" d="M 279.210938 574.605469 L 279.230469 580.953125 L 298.890625 569.605469 L 298.871094 563.261719 Z M 279.210938 574.605469 " fill-opacity="1" fill-rule="nonzero"/><path fill="#e63044" d="M 279.175781 555.71875 L 279.195312 562.0625 L 298.851562 550.71875 L 298.835938 544.375 Z M 279.175781 555.71875 " fill-opacity="1" fill-rule="nonzero"/><path fill="#363a44" d="M 279.285156 612.398438 L 279.300781 618.710938 L 298.960938 607.367188 L 298.941406 601.054688 Z M 279.285156 612.398438 " fill-opacity="1" fill-rule="nonzero"/><path fill="#e63044" d="M 279.246094 593.496094 L 279.265625 599.839844 L 298.925781 588.496094 L 298.90625 582.148438 Z M 279.246094 593.496094 " fill-opacity="1" fill-rule="nonzero"/><path fill="#363a44" d="M 279.355469 650.175781 L 279.371094 656.488281 L 299.03125 645.140625 L 299.011719 638.828125 Z M 279.355469 650.175781 " fill-opacity="1" fill-rule="nonzero"/><path fill="#363a44" d="M 279.320312 631.289062 L 279.335938 637.597656 L 298.996094 626.253906 L 298.976562 619.941406 Z M 279.320312 631.289062 " fill-opacity="1" fill-rule="nonzero"/><path fill="#363a44" d="M 279.390625 669.046875 L 279.40625 675.390625 L 299.066406 664.046875 L 299.046875 657.703125 Z M 279.390625 669.046875 " fill-opacity="1" fill-rule="nonzero"/><g clip-path="url(#d9e4683a8e)"><path fill="#bac1ce" d="M 730.066406 907.839844 L 730.042969 921.097656 L 626.691406 981.136719 L 626.714844 967.878906 Z M 730.066406 907.839844 " fill-opacity="1" fill-rule="nonzero"/></g><g clip-path="url(#0d6fcca951)"><path fill="#cad0dd" d="M 626.714844 967.878906 L 626.691406 981.136719 L 444.238281 875.839844 L 444.261719 862.582031 Z M 626.714844 967.878906 " fill-opacity="1" fill-rule="nonzero"/></g><path fill="#e4e8f4" d="M 730.066406 907.839844 L 626.714844 967.878906 L 444.261719 862.582031 L 547.617188 802.542969 Z M 730.066406 907.839844 " fill-opacity="1" fill-rule="nonzero"/><path fill="#5b5e71" d="M 616.382812 761.363281 L 615.457031 885.914062 C 615.445312 890.148438 612.667969 894.378906 607.117188 897.601562 C 595.894531 904.125 577.703125 904.09375 566.457031 897.605469 C 560.773438 894.324219 557.933594 890.035156 557.945312 885.75 L 558.871094 761.203125 C 558.859375 765.484375 561.699219 769.773438 567.382812 773.054688 C 578.628906 779.542969 596.816406 779.574219 608.042969 773.050781 C 613.59375 769.828125 616.371094 765.601562 616.382812 761.363281 Z M 616.382812 761.363281 " fill-opacity="1" fill-rule="nonzero"/><path fill="#e4e8f4" d="M 607.910156 749.511719 C 619.15625 756 619.214844 766.5625 608.042969 773.050781 C 596.816406 779.574219 578.628906 779.542969 567.382812 773.054688 C 556.085938 766.535156 556.027344 756.03125 567.25 749.511719 C 578.425781 743.019531 596.613281 742.992188 607.910156 749.511719 Z M 607.910156 749.511719 " fill-opacity="1" fill-rule="nonzero"/><path fill="#cad0dd" d="M 860.992188 805.414062 L 860.941406 818.320312 C 860.941406 820.433594 859.511719 822.546875 856.761719 824.1875 L 740.957031 891.453125 C 735.351562 894.730469 726.199219 894.730469 720.539062 891.453125 L 398.730469 705.734375 C 395.875 704.09375 394.445312 701.925781 394.445312 699.808594 L 394.5 686.855469 C 394.5 689.019531 395.925781 691.136719 398.730469 692.777344 L 720.589844 878.550781 C 726.25 881.828125 735.402344 881.777344 740.957031 878.550781 L 856.761719 811.285156 C 859.566406 809.644531 860.992188 807.53125 860.992188 805.414062 Z M 860.992188 805.414062 " fill-opacity="1" fill-rule="nonzero"/><path fill="#e4e8f4" d="M 856.71875 799.445312 C 862.394531 802.722656 862.390625 808.003906 856.785156 811.257812 L 740.980469 878.53125 C 735.375 881.785156 726.253906 881.808594 720.578125 878.53125 L 398.757812 692.800781 C 393.082031 689.523438 393.085938 684.242188 398.691406 680.988281 L 514.496094 613.714844 C 520.097656 610.460938 529.222656 610.441406 534.898438 613.714844 Z M 856.71875 799.445312 " fill-opacity="1" fill-rule="nonzero"/><path fill="#5983e2" d="M 605.285156 647.441406 L 605.25 660.375 L 484.042969 730.785156 L 484.078125 717.851562 Z M 605.285156 647.441406 " fill-opacity="1" fill-rule="nonzero"/><path fill="#658bee" d="M 484.078125 717.851562 L 484.042969 730.785156 L 403.449219 684.273438 L 403.488281 671.34375 Z M 484.078125 717.851562 " fill-opacity="1" fill-rule="nonzero"/><path fill="#8facfc" d="M 605.285156 647.441406 L 484.078125 717.851562 L 403.488281 671.34375 L 524.695312 600.933594 Z M 605.285156 647.441406 " fill-opacity="1" fill-rule="nonzero"/><path fill="#5983e2" d="M 760.046875 736.761719 L 760.011719 749.691406 L 638.804688 820.101562 L 638.84375 807.171875 Z M 760.046875 736.761719 " fill-opacity="1" fill-rule="nonzero"/><path fill="#658bee" d="M 638.84375 807.171875 L 638.804688 820.101562 L 495.390625 737.335938 L 495.425781 724.402344 Z M 638.84375 807.171875 " fill-opacity="1" fill-rule="nonzero"/><path fill="#8facfc" d="M 760.046875 736.761719 L 638.84375 807.171875 L 495.425781 724.402344 L 616.632812 653.992188 Z M 760.046875 736.761719 " fill-opacity="1" fill-rule="nonzero"/><path fill="#5983e2" d="M 851.988281 789.820312 L 851.953125 802.753906 L 730.746094 873.164062 L 730.78125 860.230469 Z M 851.988281 789.820312 " fill-opacity="1" fill-rule="nonzero"/><path fill="#658bee" d="M 730.78125 860.230469 L 730.746094 873.164062 L 650.152344 826.652344 L 650.191406 813.722656 Z M 730.78125 860.230469 " fill-opacity="1" fill-rule="nonzero"/><path fill="#8facfc" d="M 851.988281 789.820312 L 730.78125 860.230469 L 650.191406 813.722656 L 771.398438 743.3125 Z M 851.988281 789.820312 " fill-opacity="1" fill-rule="nonzero"/><path fill="#ddaf9b" d="M 755.789062 811.160156 C 720.449219 771.082031 653.417969 768.039062 661.964844 740.574219 C 664.78125 731.617188 673.695312 733.335938 675.253906 732.945312 C 681.773438 733.8125 686.671875 738.207031 695.28125 744.101562 C 736.382812 773.28125 741.949219 766.941406 759.78125 778.132812 C 760.921875 778.855469 762.195312 779.753906 762.925781 781.28125 C 763.5625 782.640625 763.515625 784.058594 763.484375 785 C 763.210938 793.503906 761.96875 801.988281 759.78125 810.214844 L 758.671875 814.429688 Z M 755.789062 811.160156 " fill-opacity="1" fill-rule="nonzero"/><path fill="#ddaf9b" d="M 781.0625 785.199219 C 755 755.660156 698.734375 738.886719 688.378906 728.621094 C 683.425781 723.699219 685.496094 706.859375 698.71875 706.859375 L 700.527344 706.980469 C 711.929688 708.496094 729.789062 728.257812 755.066406 739.265625 C 758.421875 740.71875 761.855469 741.988281 765.285156 743.257812 C 771.9375 745.726562 778.828125 748.277344 785.039062 752.171875 C 786.269531 752.9375 787.515625 753.855469 788.199219 755.347656 C 788.773438 756.605469 788.789062 757.914062 788.761719 759.035156 C 788.488281 767.539062 787.242188 776.023438 785.054688 784.253906 L 783.945312 788.46875 Z M 781.0625 785.199219 " fill-opacity="1" fill-rule="nonzero"/><path fill="#e7baa3" d="M 611.46875 649.140625 C 610.582031 641.234375 613.476562 642.851562 615.605469 638.535156 C 620.949219 639.203125 625.707031 633.714844 630.765625 635.394531 C 631.722656 637.71875 629.347656 640.203125 627.007812 641.671875 C 626.484375 642.167969 625.703125 642.65625 625.941406 643.171875 C 625.914062 644.210938 634.265625 647.410156 637.257812 649.371094 C 660.863281 662.9375 613.046875 674.574219 611.46875 649.140625 Z M 611.46875 649.140625 " fill-opacity="1" fill-rule="nonzero"/><path fill="#e63044" d="M 462.792969 570.410156 C 507.457031 570.039062 580.175781 610.472656 616.464844 630.574219 C 618.585938 631.75 620.851562 633.082031 621.800781 635.3125 C 624.203125 640.960938 616.578125 646.578125 617.4375 652.65625 C 603.085938 653.875 590.496094 644.125 577.765625 637.390625 C 560.144531 628.074219 561.804688 632.285156 530.804688 614.296875 C 509.515625 601.929688 487.253906 590.425781 464.648438 580.117188 C 462.457031 579.117188 456.917969 577.734375 456.445312 574.777344 C 455.921875 571.460938 460.195312 570.433594 462.792969 570.410156 Z M 462.792969 570.410156 " fill-opacity="1" fill-rule="nonzero"/><path fill="#ed435c" d="M 411.835938 629.28125 C 435.355469 624.175781 456.222656 639.925781 473.699219 653.730469 C 508.007812 680.828125 542.316406 707.925781 576.625 735.023438 C 591.433594 746.722656 606.402344 758.519531 623.445312 766.625 C 631.84375 770.621094 641.003906 773.726562 650.277344 773.027344 C 657.652344 772.472656 664.648438 769.546875 671.171875 766.070312 C 696.226562 752.714844 717.300781 728.148438 718.210938 699.777344 C 718.253906 698.476562 718.238281 697.109375 717.625 695.960938 C 716.789062 694.390625 715.046875 693.570312 713.417969 692.851562 C 506.289062 601.488281 503.511719 570.535156 454.429688 571.292969 C 431.511719 571.644531 438.015625 583.019531 420.039062 597.84375 C 416.140625 601.058594 416.617188 605.847656 415.890625 610.570312 C 415.566406 612.675781 413.644531 628.886719 411.835938 629.28125 Z M 411.835938 629.28125 " fill-opacity="1" fill-rule="nonzero"/><path fill="#e7baa3" d="M 419.183594 597.855469 C 429.398438 594.625 440.269531 593.460938 450.9375 594.460938 C 444.703125 588.753906 439.226562 582.21875 434.691406 575.085938 C 434.261719 574.410156 433.808594 573.699219 433.101562 573.332031 C 432.519531 573.027344 431.839844 572.996094 431.183594 572.96875 C 425.53125 572.75 419.875 572.585938 414.21875 572.480469 C 411.339844 572.425781 401.460938 570.644531 401.886719 575.273438 C 402.191406 578.613281 409.035156 582.851562 411.136719 585.292969 C 414.398438 589.070312 417.121094 593.3125 419.183594 597.855469 Z M 419.183594 597.855469 " fill-opacity="1" fill-rule="nonzero"/><path fill="#ebc5b2" d="M 434.304688 552.695312 C 443.101562 558.933594 440.917969 570.046875 440.199219 571.605469 C 437.9375 576.484375 410.539062 583.78125 399.585938 578.648438 C 396.15625 577.039062 393.332031 574.203125 389.707031 573.113281 C 383.476562 571.246094 374.875 574.894531 373.863281 556.582031 C 372.613281 533.914062 377.546875 531.269531 391.238281 527.988281 C 400.417969 525.789062 399.226562 530.527344 426.566406 547.605469 C 428.234375 548.644531 432.464844 552.640625 434.304688 552.695312 Z M 434.304688 552.695312 " fill-opacity="1" fill-rule="nonzero"/><path fill="#e7baa3" d="M 570.796875 721.542969 C 565.953125 721.152344 560.640625 719.464844 558.210938 715.054688 C 557.003906 712.714844 556.574219 709.898438 556.398438 707.085938 C 555.511719 699.183594 558.410156 700.800781 560.535156 696.484375 C 565.882812 697.152344 570.636719 691.664062 575.699219 693.34375 C 576.652344 695.667969 574.28125 698.152344 571.941406 699.621094 C 571.414062 700.117188 570.636719 700.605469 570.875 701.121094 C 570.84375 702.160156 579.199219 705.359375 582.191406 707.320312 C 587.058594 710.117188 592.988281 723.523438 570.796875 721.542969 Z M 570.796875 721.542969 " fill-opacity="1" fill-rule="nonzero"/><path fill="#e63044" d="M 422.355469 651.074219 C 436.035156 663.480469 449.714844 675.886719 463.398438 688.292969 C 472.332031 696.398438 474.585938 696.011719 488.042969 697.757812 C 512.703125 700.953125 542.972656 717.25 555.671875 715.21875 C 567.042969 713.402344 565.28125 704.574219 565.414062 692.363281 C 565.4375 690.167969 565.078125 689.300781 562.382812 688.304688 C 511.269531 669.40625 484.277344 671.652344 479.097656 667.523438 C 473.03125 662.683594 467.726562 620.628906 428.242188 619.902344 C 422.257812 619.789062 414 623.148438 412.242188 629.566406 C 409.8125 638.433594 416.363281 645.636719 422.355469 651.074219 Z M 422.355469 651.074219 " fill-opacity="1" fill-rule="nonzero"/><path fill="#3f434f" d="M 382.90625 527.242188 C 371.292969 529.363281 364.390625 543.558594 363.679688 553.445312 C 363.21875 559.875 366.703125 565.855469 370.066406 571.355469 C 371.121094 573.082031 372.226562 574.859375 373.902344 575.988281 C 375.695312 577.199219 377.921875 577.515625 380.0625 577.824219 C 392.746094 579.648438 405.324219 582.167969 417.730469 585.371094 C 419.394531 572.984375 393.421875 574.800781 389.921875 566.625 C 386.683594 559.0625 395.179688 559.285156 400.984375 559.554688 C 399.988281 555.390625 393.855469 554.234375 392.6875 550.117188 C 391.992188 547.679688 393.675781 544.839844 396.144531 544.273438 C 398.269531 543.785156 404.199219 545.800781 408.441406 538.992188 C 409.546875 537.214844 410.222656 535.066406 409.820312 533.007812 C 408.320312 525.335938 384.46875 526.957031 382.90625 527.242188 Z M 382.90625 527.242188 " fill-opacity="1" fill-rule="nonzero"/><path fill="#5b5e71" d="M 769.40625 774.621094 L 749.679688 797.070312 C 747.675781 792.878906 747.144531 784.84375 747.511719 780.25 C 747.570312 778.246094 747.75 776.125 748.742188 774.382812 C 749.855469 772.644531 751.777344 771.519531 753.699219 770.511719 C 754.417969 770.0625 755.257812 769.613281 756.09375 769.402344 C 757.28125 769.078125 758.460938 769.113281 759.761719 769.148438 C 761.175781 769.191406 762.59375 769.230469 764 769.628906 C 766.460938 770.289062 768.527344 772.238281 769.40625 774.621094 Z M 769.40625 774.621094 " fill-opacity="1" fill-rule="nonzero"/><path fill="#3f434f" d="M 761.011719 774.171875 C 754.960938 777.4375 749.996094 785.492188 749.816406 792.328125 L 749.410156 807.992188 C 749.230469 814.832031 753.914062 817.679688 759.964844 814.417969 C 765.9375 811.195312 770.984375 803.101562 771.160156 796.257812 L 771.570312 780.597656 C 771.746094 773.757812 766.988281 770.953125 761.011719 774.171875 Z M 761.011719 774.171875 " fill-opacity="1" fill-rule="nonzero"/><path fill="#5b5e71" d="M 793.160156 751.179688 L 773.433594 773.628906 C 771.429688 769.4375 770.898438 761.402344 771.265625 756.808594 C 771.324219 754.800781 771.503906 752.679688 772.5 750.941406 C 773.613281 749.203125 775.535156 748.074219 777.453125 747.070312 C 778.175781 746.617188 779.015625 746.171875 779.847656 745.957031 C 781.035156 745.636719 782.214844 745.667969 783.515625 745.707031 C 784.929688 745.746094 786.347656 745.789062 787.753906 746.1875 C 790.214844 746.84375 792.28125 748.796875 793.160156 751.179688 Z M 793.160156 751.179688 " fill-opacity="1" fill-rule="nonzero"/><path fill="#3f434f" d="M 784.765625 750.730469 C 778.714844 753.996094 773.75 762.046875 773.570312 768.882812 L 773.164062 784.546875 C 772.984375 791.390625 777.667969 794.238281 783.71875 790.976562 C 789.691406 787.753906 794.738281 779.660156 794.914062 772.816406 L 795.324219 757.152344 C 795.5 750.316406 790.742188 747.507812 784.765625 750.730469 Z M 784.765625 750.730469 " fill-opacity="1" fill-rule="nonzero"/></svg>