<svg xmlns="http://www.w3.org/2000/svg" xmlns:xlink="http://www.w3.org/1999/xlink" width="500" zoomAndPan="magnify" viewBox="0 0 375 374.999991" height="500" preserveAspectRatio="xMidYMid meet" version="1.0"><defs><g/></defs><g fill="#004aad" fill-opacity="1"><g transform="translate(12.83438, 150.006127)"><g><path d="M 4.890625 0 L 2.046875 0 L 2.046875 -15.703125 L 6.109375 -15.703125 L 10.078125 -4.15625 L 10.296875 -4.15625 L 14.25 -15.703125 L 18.21875 -15.703125 L 18.21875 0 L 15.28125 0 L 15.28125 -10.375 L 15 -10.421875 L 11.375 0 L 8.78125 0 L 5.15625 -10.421875 L 4.890625 -10.375 Z M 4.890625 0 "/></g></g></g><g fill="#004aad" fill-opacity="1"><g transform="translate(33.101293, 150.006127)"><g><path d="M 15.078125 0 L 11.8125 0 L 10.625 -3.625 L 4.609375 -3.625 L 3.421875 0 L 0.234375 0 L 5.65625 -15.703125 L 9.640625 -15.703125 Z M 7.46875 -12.421875 L 5.453125 -6.234375 L 9.765625 -6.234375 L 7.734375 -12.421875 Z M 7.46875 -12.421875 "/></g></g></g><g fill="#004aad" fill-opacity="1"><g transform="translate(48.406197, 150.006127)"><g><path d="M 12.1875 -9.796875 L 12.1875 -15.703125 L 15.28125 -15.703125 L 15.28125 0 L 12.1875 0 L 12.1875 -7.15625 L 5.140625 -7.15625 L 5.140625 0 L 2.046875 0 L 2.046875 -15.703125 L 5.140625 -15.703125 L 5.140625 -9.796875 Z M 12.1875 -9.796875 "/></g></g></g><g fill="#004aad" fill-opacity="1"><g transform="translate(65.730273, 150.006127)"><g><path d="M 15.078125 0 L 11.8125 0 L 10.625 -3.625 L 4.609375 -3.625 L 3.421875 0 L 0.234375 0 L 5.65625 -15.703125 L 9.640625 -15.703125 Z M 7.46875 -12.421875 L 5.453125 -6.234375 L 9.765625 -6.234375 L 7.734375 -12.421875 Z M 7.46875 -12.421875 "/></g></g></g><g fill="#004aad" fill-opacity="1"><g transform="translate(81.035177, 150.006127)"><g><path d="M 12.59375 -15.703125 L 12.59375 -13.09375 L 8.0625 -13.09375 L 8.0625 0 L 4.96875 0 L 4.96875 -13.09375 L 0.4375 -13.09375 L 0.4375 -15.703125 Z M 12.59375 -15.703125 "/></g></g></g><g fill="#004aad" fill-opacity="1"><g transform="translate(94.052396, 150.006127)"><g><path d="M 4.890625 0 L 2.046875 0 L 2.046875 -15.703125 L 6.109375 -15.703125 L 10.078125 -4.15625 L 10.296875 -4.15625 L 14.25 -15.703125 L 18.21875 -15.703125 L 18.21875 0 L 15.28125 0 L 15.28125 -10.375 L 15 -10.421875 L 11.375 0 L 8.78125 0 L 5.15625 -10.421875 L 4.890625 -10.375 Z M 4.890625 0 "/></g></g></g><g fill="#004aad" fill-opacity="1"><g transform="translate(114.319309, 150.006127)"><g><path d="M 15.078125 0 L 11.8125 0 L 10.625 -3.625 L 4.609375 -3.625 L 3.421875 0 L 0.234375 0 L 5.65625 -15.703125 L 9.640625 -15.703125 Z M 7.46875 -12.421875 L 5.453125 -6.234375 L 9.765625 -6.234375 L 7.734375 -12.421875 Z M 7.46875 -12.421875 "/></g></g></g><g fill="#004aad" fill-opacity="1"><g transform="translate(129.624213, 150.006127)"><g/></g></g><g fill="#004aad" fill-opacity="1"><g transform="translate(134.811774, 150.006127)"><g><path d="M 7.625 0.21875 C 6.3125 0.21875 5.175781 -0.078125 4.21875 -0.671875 C 3.269531 -1.265625 2.535156 -2.164062 2.015625 -3.375 C 1.492188 -4.582031 1.234375 -6.078125 1.234375 -7.859375 C 1.234375 -9.640625 1.546875 -11.132812 2.171875 -12.34375 C 2.796875 -13.550781 3.660156 -14.453125 4.765625 -15.046875 C 5.867188 -15.640625 7.148438 -15.9375 8.609375 -15.9375 C 10.117188 -15.9375 11.398438 -15.65625 12.453125 -15.09375 C 13.515625 -14.53125 14.265625 -13.695312 14.703125 -12.59375 L 12.421875 -11.21875 L 12.15625 -11.234375 C 11.832031 -11.941406 11.378906 -12.453125 10.796875 -12.765625 C 10.210938 -13.085938 9.484375 -13.25 8.609375 -13.25 C 7.253906 -13.25 6.21875 -12.820312 5.5 -11.96875 C 4.789062 -11.113281 4.4375 -9.742188 4.4375 -7.859375 C 4.4375 -5.953125 4.769531 -4.566406 5.4375 -3.703125 C 6.113281 -2.847656 7.101562 -2.421875 8.40625 -2.421875 C 9.539062 -2.421875 10.375 -2.675781 10.90625 -3.1875 C 11.445312 -3.695312 11.71875 -4.457031 11.71875 -5.46875 L 11.71875 -6.140625 L 8 -6.140625 L 8 -8.671875 L 14.796875 -8.671875 L 14.796875 0 L 11.84375 0 L 11.84375 -2.109375 L 11.609375 -2.140625 C 11.285156 -1.390625 10.796875 -0.804688 10.140625 -0.390625 C 9.484375 0.015625 8.644531 0.21875 7.625 0.21875 Z M 7.625 0.21875 "/></g></g></g><g fill="#004aad" fill-opacity="1"><g transform="translate(151.190705, 150.006127)"><g><path d="M 15.078125 0 L 11.8125 0 L 10.625 -3.625 L 4.609375 -3.625 L 3.421875 0 L 0.234375 0 L 5.65625 -15.703125 L 9.640625 -15.703125 Z M 7.46875 -12.421875 L 5.453125 -6.234375 L 9.765625 -6.234375 L 7.734375 -12.421875 Z M 7.46875 -12.421875 "/></g></g></g><g fill="#004aad" fill-opacity="1"><g transform="translate(166.495609, 150.006127)"><g><path d="M 5.046875 0 L 2.046875 0 L 2.046875 -15.703125 L 5.59375 -15.703125 L 11.90625 -5.59375 L 12.1875 -5.625 L 12.1875 -15.703125 L 15.171875 -15.703125 L 15.171875 0 L 11.984375 0 L 5.3125 -10.8125 L 5.046875 -10.765625 Z M 5.046875 0 "/></g></g></g><g fill="#004aad" fill-opacity="1"><g transform="translate(183.712283, 150.006127)"><g><path d="M 7.6875 -15.703125 C 10.238281 -15.703125 12.1875 -15.039062 13.53125 -13.71875 C 14.875 -12.40625 15.546875 -10.453125 15.546875 -7.859375 C 15.546875 -5.265625 14.875 -3.304688 13.53125 -1.984375 C 12.1875 -0.660156 10.238281 0 7.6875 0 L 2.046875 0 L 2.046875 -15.703125 Z M 7.515625 -2.609375 C 9.128906 -2.609375 10.335938 -3.019531 11.140625 -3.84375 C 11.941406 -4.675781 12.34375 -6.015625 12.34375 -7.859375 C 12.34375 -9.691406 11.941406 -11.019531 11.140625 -11.84375 C 10.335938 -12.675781 9.128906 -13.09375 7.515625 -13.09375 L 5.140625 -13.09375 L 5.140625 -2.609375 Z M 7.515625 -2.609375 "/></g></g></g><g fill="#004aad" fill-opacity="1"><g transform="translate(200.499345, 150.006127)"><g><path d="M 12.1875 -9.796875 L 12.1875 -15.703125 L 15.28125 -15.703125 L 15.28125 0 L 12.1875 0 L 12.1875 -7.15625 L 5.140625 -7.15625 L 5.140625 0 L 2.046875 0 L 2.046875 -15.703125 L 5.140625 -15.703125 L 5.140625 -9.796875 Z M 12.1875 -9.796875 "/></g></g></g><g fill="#004aad" fill-opacity="1"><g transform="translate(217.82341, 150.006127)"><g><path d="M 5.140625 0 L 2.046875 0 L 2.046875 -15.703125 L 5.140625 -15.703125 Z M 5.140625 0 "/></g></g></g><g fill="#004aad" fill-opacity="1"><g transform="translate(225.019409, 150.006127)"><g/></g></g><g fill="#004aad" fill-opacity="1"><g transform="translate(230.206969, 150.006127)"><g><path d="M 8.328125 0.21875 C 6.160156 0.21875 4.550781 -0.289062 3.5 -1.3125 C 2.457031 -2.34375 1.9375 -3.867188 1.9375 -5.890625 L 1.9375 -15.703125 L 4.984375 -15.703125 L 4.984375 -5.90625 C 4.984375 -4.757812 5.257812 -3.898438 5.8125 -3.328125 C 6.363281 -2.753906 7.203125 -2.46875 8.328125 -2.46875 C 10.554688 -2.46875 11.671875 -3.613281 11.671875 -5.90625 L 11.671875 -15.703125 L 14.703125 -15.703125 L 14.703125 -5.890625 C 14.703125 -3.867188 14.175781 -2.34375 13.125 -1.3125 C 12.082031 -0.289062 10.484375 0.21875 8.328125 0.21875 Z M 8.328125 0.21875 "/></g></g></g><g fill="#004aad" fill-opacity="1"><g transform="translate(246.854414, 150.006127)"><g><path d="M 5.046875 0 L 2.046875 0 L 2.046875 -15.703125 L 5.59375 -15.703125 L 11.90625 -5.59375 L 12.1875 -5.625 L 12.1875 -15.703125 L 15.171875 -15.703125 L 15.171875 0 L 11.984375 0 L 5.3125 -10.8125 L 5.046875 -10.765625 Z M 5.046875 0 "/></g></g></g><g fill="#004aad" fill-opacity="1"><g transform="translate(264.071087, 150.006127)"><g><path d="M 5.140625 0 L 2.046875 0 L 2.046875 -15.703125 L 5.140625 -15.703125 Z M 5.140625 0 "/></g></g></g><g fill="#004aad" fill-opacity="1"><g transform="translate(271.267086, 150.006127)"><g><path d="M 9.328125 0 L 5.59375 0 L 0.28125 -15.703125 L 3.578125 -15.703125 L 7.390625 -4 L 7.65625 -4 L 11.421875 -15.703125 L 14.625 -15.703125 Z M 9.328125 0 "/></g></g></g><g fill="#004aad" fill-opacity="1"><g transform="translate(286.174593, 150.006127)"><g><path d="M 5.140625 -6.890625 L 5.140625 -2.59375 L 12.640625 -2.59375 L 12.640625 0 L 2.046875 0 L 2.046875 -15.703125 L 12.46875 -15.703125 L 12.46875 -13.109375 L 5.140625 -13.109375 L 5.140625 -9.4375 L 11.546875 -9.4375 L 11.546875 -6.890625 Z M 5.140625 -6.890625 "/></g></g></g><g fill="#004aad" fill-opacity="1"><g transform="translate(299.675119, 150.006127)"><g><path d="M 2.046875 0 L 2.046875 -15.703125 L 8.34375 -15.703125 C 9.96875 -15.703125 11.191406 -15.328125 12.015625 -14.578125 C 12.847656 -13.828125 13.265625 -12.796875 13.265625 -11.484375 C 13.265625 -10.535156 13.019531 -9.753906 12.53125 -9.140625 C 12.050781 -8.535156 11.332031 -8.070312 10.375 -7.75 L 10.375 -7.515625 C 10.875 -7.304688 11.273438 -6.988281 11.578125 -6.5625 C 11.878906 -6.144531 12.164062 -5.519531 12.4375 -4.6875 L 14.015625 0 L 10.8125 0 L 9.28125 -4.6875 C 9.125 -5.164062 8.945312 -5.535156 8.75 -5.796875 C 8.550781 -6.054688 8.300781 -6.242188 8 -6.359375 C 7.695312 -6.484375 7.300781 -6.546875 6.8125 -6.546875 L 5.140625 -6.546875 L 5.140625 0 Z M 7.96875 -9 C 9.476562 -9 10.234375 -9.703125 10.234375 -11.109375 C 10.234375 -12.535156 9.476562 -13.25 7.96875 -13.25 L 5.140625 -13.25 L 5.140625 -9 Z M 7.96875 -9 "/></g></g></g><g fill="#004aad" fill-opacity="1"><g transform="translate(314.357086, 150.006127)"><g><path d="M 6.96875 0.21875 C 5.875 0.21875 4.898438 0.0859375 4.046875 -0.171875 C 3.203125 -0.441406 2.492188 -0.796875 1.921875 -1.234375 C 1.359375 -1.671875 0.929688 -2.148438 0.640625 -2.671875 L 2.34375 -4.765625 L 2.609375 -4.765625 C 3.078125 -4.054688 3.675781 -3.492188 4.40625 -3.078125 C 5.132812 -2.660156 5.988281 -2.453125 6.96875 -2.453125 C 7.789062 -2.453125 8.410156 -2.628906 8.828125 -2.984375 C 9.253906 -3.335938 9.46875 -3.820312 9.46875 -4.4375 C 9.46875 -4.8125 9.398438 -5.125 9.265625 -5.375 C 9.128906 -5.625 8.90625 -5.835938 8.59375 -6.015625 C 8.28125 -6.191406 7.851562 -6.347656 7.3125 -6.484375 L 5.296875 -6.9375 C 3.890625 -7.257812 2.835938 -7.796875 2.140625 -8.546875 C 1.453125 -9.296875 1.109375 -10.269531 1.109375 -11.46875 C 1.109375 -12.351562 1.328125 -13.128906 1.765625 -13.796875 C 2.210938 -14.472656 2.859375 -15 3.703125 -15.375 C 4.554688 -15.75 5.570312 -15.9375 6.75 -15.9375 C 7.96875 -15.9375 9.003906 -15.773438 9.859375 -15.453125 C 10.722656 -15.128906 11.453125 -14.640625 12.046875 -13.984375 L 10.515625 -11.875 L 10.25 -11.875 C 9.800781 -12.34375 9.289062 -12.691406 8.71875 -12.921875 C 8.144531 -13.160156 7.488281 -13.28125 6.75 -13.28125 C 5.90625 -13.28125 5.257812 -13.128906 4.8125 -12.828125 C 4.363281 -12.523438 4.140625 -12.109375 4.140625 -11.578125 C 4.140625 -11.085938 4.296875 -10.691406 4.609375 -10.390625 C 4.921875 -10.097656 5.460938 -9.875 6.234375 -9.71875 L 8.296875 -9.28125 C 9.816406 -8.957031 10.921875 -8.410156 11.609375 -7.640625 C 12.296875 -6.867188 12.640625 -5.863281 12.640625 -4.625 C 12.640625 -3.644531 12.425781 -2.789062 12 -2.0625 C 11.582031 -1.34375 10.945312 -0.78125 10.09375 -0.375 C 9.238281 0.0195312 8.195312 0.21875 6.96875 0.21875 Z M 6.96875 0.21875 "/></g></g></g><g fill="#004aad" fill-opacity="1"><g transform="translate(327.846877, 150.006127)"><g><path d="M 5.140625 0 L 2.046875 0 L 2.046875 -15.703125 L 5.140625 -15.703125 Z M 5.140625 0 "/></g></g></g><g fill="#004aad" fill-opacity="1"><g transform="translate(335.042853, 150.006127)"><g><path d="M 12.59375 -15.703125 L 12.59375 -13.09375 L 8.0625 -13.09375 L 8.0625 0 L 4.96875 0 L 4.96875 -13.09375 L 0.4375 -13.09375 L 0.4375 -15.703125 Z M 12.59375 -15.703125 "/></g></g></g><g fill="#004aad" fill-opacity="1"><g transform="translate(348.060072, 150.006127)"><g><path d="M 8.609375 0 L 5.5 0 L 5.5 -6.171875 L 0.078125 -15.703125 L 3.40625 -15.703125 L 7 -9.53125 L 7.265625 -9.53125 L 10.78125 -15.703125 L 14.03125 -15.703125 L 8.609375 -6.171875 Z M 8.609375 0 "/></g></g></g><path stroke-linecap="butt" transform="matrix(0.75, -0.000000000000000093, 0.000000000000000093, 0.75, 12.83438, 166.981043)" fill="none" stroke-linejoin="miter" d="M 0.00207606 1.999235 L 218.007299 1.999235 " stroke="#ffbd59" stroke-width="4" stroke-opacity="1" stroke-miterlimit="4"/><path stroke-linecap="butt" transform="matrix(0.75, 0, 0, 0.75, 198.66093, 166.981043)" fill="none" stroke-linejoin="miter" d="M -0.00103147 1.999235 L 218.004191 1.999235 " stroke="#ff914d" stroke-width="4" stroke-opacity="1" stroke-miterlimit="4"/><g fill="#004aad" fill-opacity="1"><g transform="translate(180.843744, 166.575078)"><g><path d="M 1.40625 0.132812 C 2.726562 0.132812 3.71875 -0.96875 4.882812 -2.53125 C 5.191406 -2.332031 5.699219 -2.222656 6.136719 -2.222656 C 6.773438 -2.222656 7.941406 -2.792969 8.6875 -4.136719 C 8.753906 -4.246094 8.710938 -4.332031 8.621094 -4.398438 C 8.492188 -4.507812 8.316406 -4.289062 8.203125 -4.136719 C 7.457031 -2.96875 6.644531 -2.75 6.136719 -2.75 C 5.875 -2.75 5.519531 -2.816406 5.214844 -3.011719 C 6.070312 -4.289062 7.082031 -5.585938 7.039062 -7.566406 C 7.015625 -8.511719 6.378906 -9.039062 5.609375 -9.039062 C 4.3125 -9.039062 3.125 -7.371094 3.125 -5.808594 C 3.125 -4.507812 3.628906 -3.410156 4.421875 -2.792969 C 3.453125 -1.453125 2.375 -0.394531 1.496094 -0.394531 C 0.925781 -0.394531 0.792969 -0.835938 0.792969 -1.363281 C 0.792969 -2.949219 2.417969 -5.300781 2.550781 -5.585938 C 2.660156 -5.828125 2.726562 -6.246094 2.113281 -6.246094 C 1.761719 -6.246094 1.472656 -5.9375 1.1875 -5.542969 C 0.683594 -4.863281 0.285156 -4.003906 0.0429688 -3.210938 C -0.441406 -1.648438 -0.199219 0.132812 1.40625 0.132812 Z M 4.816406 -3.367188 C 4.222656 -3.980469 4.070312 -4.640625 4.070312 -5.257812 C 4.070312 -6.578125 4.972656 -7.984375 5.785156 -7.984375 C 6.136719 -7.984375 6.3125 -7.433594 6.3125 -6.972656 C 6.3125 -5.785156 5.566406 -4.507812 4.816406 -3.367188 Z M 4.816406 -3.367188 "/></g></g></g><g fill="#004aad" fill-opacity="1"><g transform="translate(188.388398, 166.575078)"><g><path d="M -1.519531 10.339844 C 0.59375 10.339844 2.242188 6.050781 2.949219 2.507812 C 3.101562 1.738281 3.191406 0.925781 3.144531 0.199219 C 3.980469 -0.328125 4.796875 -1.144531 5.457031 -2.023438 C 5.828125 -2.484375 6.421875 -3.386719 6.90625 -4.136719 C 6.972656 -4.222656 6.929688 -4.332031 6.839844 -4.398438 C 6.710938 -4.488281 6.554688 -4.332031 6.421875 -4.136719 C 5.410156 -2.683594 5.101562 -2.179688 4.507812 -1.539062 C 4.113281 -1.101562 3.628906 -0.660156 3.101562 -0.308594 C 2.949219 -1.386719 2.441406 -2.199219 1.386719 -2.199219 C 1.210938 -2.199219 1.054688 -2.179688 0.902344 -2.113281 C 1.539062 -3.609375 2.242188 -5.082031 2.925781 -6.535156 L 3.628906 -8.007812 C 3.847656 -8.09375 4.070312 -8.183594 4.289062 -8.292969 C 6.929688 -9.636719 9.128906 -12.867188 9.128906 -14.539062 C 9.128906 -15.15625 8.820312 -15.574219 8.09375 -15.574219 C 6.179688 -15.574219 2.242188 -8.382812 0.484375 -4.113281 C -0.417969 -1.9375 -1.914062 1.957031 -2.53125 4.246094 C -3.367188 7.304688 -3.628906 10.339844 -1.519531 10.339844 Z M 3.960938 -8.644531 C 5.5 -11.527344 7.480469 -14.605469 8.203125 -14.605469 C 8.46875 -14.605469 8.578125 -14.453125 8.578125 -14.167969 C 8.578125 -13.042969 6.511719 -9.964844 3.960938 -8.644531 Z M 1.1875 0.417969 C 0.703125 0.417969 0.375 0.132812 0.375 -0.328125 C 0.375 -0.902344 0.835938 -1.628906 1.519531 -1.628906 C 2.222656 -1.628906 2.550781 -0.945312 2.640625 -0.0234375 C 2.15625 0.242188 1.648438 0.417969 1.1875 0.417969 Z M -1.429688 9.832031 C -2.707031 9.832031 -2.265625 7.214844 -1.761719 5.257812 C -1.296875 3.542969 -0.683594 1.890625 -0.0429688 0.242188 C 0.199219 0.636719 0.617188 0.902344 1.1875 0.902344 C 1.671875 0.902344 2.179688 0.746094 2.683594 0.484375 C 2.707031 1.429688 2.550781 2.507812 2.355469 3.367188 C 1.628906 6.335938 0.265625 9.832031 -1.429688 9.832031 Z M -1.429688 9.832031 "/></g></g></g><g fill="#004aad" fill-opacity="1"><g transform="translate(15.824996, 194.624987)"><g><path d="M 4.4375 0 L 1.859375 0 L 1.859375 -14.28125 L 5.546875 -14.28125 L 9.15625 -3.78125 L 9.359375 -3.78125 L 12.953125 -14.28125 L 16.5625 -14.28125 L 16.5625 0 L 13.890625 0 L 13.890625 -9.4375 L 13.640625 -9.46875 L 10.34375 0 L 7.984375 0 L 4.6875 -9.46875 L 4.4375 -9.4375 Z M 4.4375 0 "/></g></g></g><g fill="#004aad" fill-opacity="1"><g transform="translate(34.245531, 194.624987)"><g><path d="M 4.671875 -6.265625 L 4.671875 -2.359375 L 11.5 -2.359375 L 11.5 0 L 1.859375 0 L 1.859375 -14.28125 L 11.34375 -14.28125 L 11.34375 -11.921875 L 4.671875 -11.921875 L 4.671875 -8.578125 L 10.5 -8.578125 L 10.5 -6.265625 Z M 4.671875 -6.265625 "/></g></g></g><g fill="#004aad" fill-opacity="1"><g transform="translate(46.516126, 194.624987)"><g><path d="M 7 -14.28125 C 9.3125 -14.28125 11.078125 -13.679688 12.296875 -12.484375 C 13.515625 -11.285156 14.125 -9.503906 14.125 -7.140625 C 14.125 -4.785156 13.515625 -3.003906 12.296875 -1.796875 C 11.078125 -0.597656 9.3125 0 7 0 L 1.859375 0 L 1.859375 -14.28125 Z M 6.828125 -2.375 C 8.296875 -2.375 9.394531 -2.75 10.125 -3.5 C 10.851562 -4.25 11.21875 -5.460938 11.21875 -7.140625 C 11.21875 -8.816406 10.851562 -10.03125 10.125 -10.78125 C 9.394531 -11.53125 8.296875 -11.90625 6.828125 -11.90625 L 4.671875 -11.90625 L 4.671875 -2.375 Z M 6.828125 -2.375 "/></g></g></g><g fill="#004aad" fill-opacity="1"><g transform="translate(61.773835, 194.624987)"><g><path d="M 4.671875 0 L 1.859375 0 L 1.859375 -14.28125 L 4.671875 -14.28125 Z M 4.671875 0 "/></g></g></g><g fill="#004aad" fill-opacity="1"><g transform="translate(68.314247, 194.624987)"><g><path d="M 7.796875 0.203125 C 6.484375 0.203125 5.328125 -0.0664062 4.328125 -0.609375 C 3.328125 -1.160156 2.539062 -1.984375 1.96875 -3.078125 C 1.40625 -4.179688 1.125 -5.535156 1.125 -7.140625 C 1.125 -8.742188 1.40625 -10.09375 1.96875 -11.1875 C 2.539062 -12.289062 3.328125 -13.113281 4.328125 -13.65625 C 5.328125 -14.207031 6.484375 -14.484375 7.796875 -14.484375 C 9.171875 -14.484375 10.335938 -14.210938 11.296875 -13.671875 C 12.265625 -13.140625 12.953125 -12.320312 13.359375 -11.21875 L 11.296875 -9.96875 L 11.0625 -9.96875 C 10.75 -10.707031 10.332031 -11.238281 9.8125 -11.5625 C 9.289062 -11.882812 8.617188 -12.046875 7.796875 -12.046875 C 6.617188 -12.046875 5.695312 -11.65625 5.03125 -10.875 C 4.363281 -10.09375 4.03125 -8.847656 4.03125 -7.140625 C 4.03125 -5.441406 4.363281 -4.195312 5.03125 -3.40625 C 5.695312 -2.625 6.617188 -2.234375 7.796875 -2.234375 C 9.660156 -2.234375 10.800781 -3.132812 11.21875 -4.9375 L 11.453125 -4.9375 L 13.53125 -3.859375 C 13.144531 -2.503906 12.476562 -1.488281 11.53125 -0.8125 C 10.59375 -0.132812 9.347656 0.203125 7.796875 0.203125 Z M 7.796875 0.203125 "/></g></g></g><g fill="#004aad" fill-opacity="1"><g transform="translate(82.312682, 194.624987)"><g><path d="M 13.703125 0 L 10.734375 0 L 9.65625 -3.296875 L 4.1875 -3.296875 L 3.109375 0 L 0.21875 0 L 5.140625 -14.28125 L 8.765625 -14.28125 Z M 6.78125 -11.296875 L 4.953125 -5.671875 L 8.875 -5.671875 L 7.03125 -11.296875 Z M 6.78125 -11.296875 "/></g></g></g><g fill="#004aad" fill-opacity="1"><g transform="translate(96.223261, 194.624987)"><g><path d="M 4.671875 -14.28125 L 4.671875 -2.359375 L 11.09375 -2.359375 L 11.09375 0 L 1.859375 0 L 1.859375 -14.28125 Z M 4.671875 -14.28125 "/></g></g></g><g fill="#004aad" fill-opacity="1"><g transform="translate(107.781244, 194.624987)"><g/></g></g><g fill="#004aad" fill-opacity="1"><g transform="translate(112.496198, 194.624987)"><g><path d="M 6.328125 0.203125 C 5.335938 0.203125 4.457031 0.0820312 3.6875 -0.15625 C 2.914062 -0.40625 2.269531 -0.726562 1.75 -1.125 C 1.238281 -1.519531 0.847656 -1.957031 0.578125 -2.4375 L 2.125 -4.328125 L 2.375 -4.328125 C 2.800781 -3.691406 3.34375 -3.179688 4 -2.796875 C 4.664062 -2.421875 5.441406 -2.234375 6.328125 -2.234375 C 7.085938 -2.234375 7.65625 -2.390625 8.03125 -2.703125 C 8.414062 -3.023438 8.609375 -3.46875 8.609375 -4.03125 C 8.609375 -4.375 8.546875 -4.65625 8.421875 -4.875 C 8.304688 -5.101562 8.101562 -5.300781 7.8125 -5.46875 C 7.53125 -5.632812 7.144531 -5.773438 6.65625 -5.890625 L 4.8125 -6.3125 C 3.53125 -6.601562 2.570312 -7.085938 1.9375 -7.765625 C 1.3125 -8.453125 1 -9.335938 1 -10.421875 C 1 -11.222656 1.203125 -11.929688 1.609375 -12.546875 C 2.015625 -13.160156 2.601562 -13.632812 3.375 -13.96875 C 4.144531 -14.3125 5.066406 -14.484375 6.140625 -14.484375 C 7.242188 -14.484375 8.1875 -14.335938 8.96875 -14.046875 C 9.75 -13.753906 10.410156 -13.3125 10.953125 -12.71875 L 9.5625 -10.796875 L 9.3125 -10.796875 C 8.914062 -11.222656 8.457031 -11.539062 7.9375 -11.75 C 7.414062 -11.96875 6.816406 -12.078125 6.140625 -12.078125 C 5.367188 -12.078125 4.78125 -11.9375 4.375 -11.65625 C 3.96875 -11.382812 3.765625 -11.007812 3.765625 -10.53125 C 3.765625 -10.082031 3.90625 -9.722656 4.1875 -9.453125 C 4.476562 -9.179688 4.972656 -8.972656 5.671875 -8.828125 L 7.546875 -8.4375 C 8.929688 -8.144531 9.9375 -7.648438 10.5625 -6.953125 C 11.1875 -6.253906 11.5 -5.335938 11.5 -4.203125 C 11.5 -3.316406 11.304688 -2.539062 10.921875 -1.875 C 10.535156 -1.21875 9.953125 -0.707031 9.171875 -0.34375 C 8.398438 0.0195312 7.453125 0.203125 6.328125 0.203125 Z M 6.328125 0.203125 "/></g></g></g><g fill="#004aad" fill-opacity="1"><g transform="translate(124.757031, 194.624987)"><g><path d="M 7.796875 0.203125 C 6.484375 0.203125 5.328125 -0.0664062 4.328125 -0.609375 C 3.328125 -1.160156 2.539062 -1.984375 1.96875 -3.078125 C 1.40625 -4.179688 1.125 -5.535156 1.125 -7.140625 C 1.125 -8.742188 1.40625 -10.09375 1.96875 -11.1875 C 2.539062 -12.289062 3.328125 -13.113281 4.328125 -13.65625 C 5.328125 -14.207031 6.484375 -14.484375 7.796875 -14.484375 C 9.171875 -14.484375 10.335938 -14.210938 11.296875 -13.671875 C 12.265625 -13.140625 12.953125 -12.320312 13.359375 -11.21875 L 11.296875 -9.96875 L 11.0625 -9.96875 C 10.75 -10.707031 10.332031 -11.238281 9.8125 -11.5625 C 9.289062 -11.882812 8.617188 -12.046875 7.796875 -12.046875 C 6.617188 -12.046875 5.695312 -11.65625 5.03125 -10.875 C 4.363281 -10.09375 4.03125 -8.847656 4.03125 -7.140625 C 4.03125 -5.441406 4.363281 -4.195312 5.03125 -3.40625 C 5.695312 -2.625 6.617188 -2.234375 7.796875 -2.234375 C 9.660156 -2.234375 10.800781 -3.132812 11.21875 -4.9375 L 11.453125 -4.9375 L 13.53125 -3.859375 C 13.144531 -2.503906 12.476562 -1.488281 11.53125 -0.8125 C 10.59375 -0.132812 9.347656 0.203125 7.796875 0.203125 Z M 7.796875 0.203125 "/></g></g></g><g fill="#004aad" fill-opacity="1"><g transform="translate(138.755465, 194.624987)"><g><path d="M 4.671875 0 L 1.859375 0 L 1.859375 -14.28125 L 4.671875 -14.28125 Z M 4.671875 0 "/></g></g></g><g fill="#004aad" fill-opacity="1"><g transform="translate(145.295878, 194.624987)"><g><path d="M 4.671875 -6.265625 L 4.671875 -2.359375 L 11.5 -2.359375 L 11.5 0 L 1.859375 0 L 1.859375 -14.28125 L 11.34375 -14.28125 L 11.34375 -11.921875 L 4.671875 -11.921875 L 4.671875 -8.578125 L 10.5 -8.578125 L 10.5 -6.265625 Z M 4.671875 -6.265625 "/></g></g></g><g fill="#004aad" fill-opacity="1"><g transform="translate(157.566473, 194.624987)"><g><path d="M 4.59375 0 L 1.859375 0 L 1.859375 -14.28125 L 5.09375 -14.28125 L 10.828125 -5.078125 L 11.078125 -5.125 L 11.078125 -14.28125 L 13.796875 -14.28125 L 13.796875 0 L 10.90625 0 L 4.828125 -9.828125 L 4.59375 -9.78125 Z M 4.59375 0 "/></g></g></g><g fill="#004aad" fill-opacity="1"><g transform="translate(173.214654, 194.624987)"><g><path d="M 7.796875 0.203125 C 6.484375 0.203125 5.328125 -0.0664062 4.328125 -0.609375 C 3.328125 -1.160156 2.539062 -1.984375 1.96875 -3.078125 C 1.40625 -4.179688 1.125 -5.535156 1.125 -7.140625 C 1.125 -8.742188 1.40625 -10.09375 1.96875 -11.1875 C 2.539062 -12.289062 3.328125 -13.113281 4.328125 -13.65625 C 5.328125 -14.207031 6.484375 -14.484375 7.796875 -14.484375 C 9.171875 -14.484375 10.335938 -14.210938 11.296875 -13.671875 C 12.265625 -13.140625 12.953125 -12.320312 13.359375 -11.21875 L 11.296875 -9.96875 L 11.0625 -9.96875 C 10.75 -10.707031 10.332031 -11.238281 9.8125 -11.5625 C 9.289062 -11.882812 8.617188 -12.046875 7.796875 -12.046875 C 6.617188 -12.046875 5.695312 -11.65625 5.03125 -10.875 C 4.363281 -10.09375 4.03125 -8.847656 4.03125 -7.140625 C 4.03125 -5.441406 4.363281 -4.195312 5.03125 -3.40625 C 5.695312 -2.625 6.617188 -2.234375 7.796875 -2.234375 C 9.660156 -2.234375 10.800781 -3.132812 11.21875 -4.9375 L 11.453125 -4.9375 L 13.53125 -3.859375 C 13.144531 -2.503906 12.476562 -1.488281 11.53125 -0.8125 C 10.59375 -0.132812 9.347656 0.203125 7.796875 0.203125 Z M 7.796875 0.203125 "/></g></g></g><g fill="#004aad" fill-opacity="1"><g transform="translate(187.213089, 194.624987)"><g><path d="M 4.671875 -6.265625 L 4.671875 -2.359375 L 11.5 -2.359375 L 11.5 0 L 1.859375 0 L 1.859375 -14.28125 L 11.34375 -14.28125 L 11.34375 -11.921875 L 4.671875 -11.921875 L 4.671875 -8.578125 L 10.5 -8.578125 L 10.5 -6.265625 Z M 4.671875 -6.265625 "/></g></g></g><g fill="#004aad" fill-opacity="1"><g transform="translate(199.483684, 194.624987)"><g/></g></g><g fill="#004aad" fill-opacity="1"><g transform="translate(204.198638, 194.624987)"><g><path d="M 5.84375 0.203125 C 4.800781 0.203125 3.894531 0.03125 3.125 -0.3125 C 2.351562 -0.664062 1.753906 -1.171875 1.328125 -1.828125 C 0.910156 -2.484375 0.703125 -3.25 0.703125 -4.125 C 0.703125 -5.0625 0.9375 -5.835938 1.40625 -6.453125 C 1.875 -7.078125 2.582031 -7.585938 3.53125 -7.984375 L 3.546875 -8.1875 C 3.117188 -8.71875 2.804688 -9.207031 2.609375 -9.65625 C 2.421875 -10.101562 2.328125 -10.59375 2.328125 -11.125 C 2.328125 -11.78125 2.484375 -12.363281 2.796875 -12.875 C 3.109375 -13.382812 3.5625 -13.78125 4.15625 -14.0625 C 4.757812 -14.34375 5.472656 -14.484375 6.296875 -14.484375 C 7.078125 -14.484375 7.742188 -14.351562 8.296875 -14.09375 C 8.847656 -13.832031 9.269531 -13.46875 9.5625 -13 C 9.863281 -12.539062 10.015625 -12.007812 10.015625 -11.40625 C 10.015625 -10.59375 9.769531 -9.882812 9.28125 -9.28125 C 8.800781 -8.6875 8.046875 -8.191406 7.015625 -7.796875 L 7 -7.59375 L 9.640625 -4.109375 C 9.796875 -4.453125 9.90625 -4.84375 9.96875 -5.28125 C 10.03125 -5.71875 10.0625 -6.210938 10.0625 -6.765625 L 10.046875 -7.265625 L 12.328125 -7.265625 C 12.328125 -5.265625 11.9375 -3.644531 11.15625 -2.40625 C 11.3125 -2.269531 11.453125 -2.175781 11.578125 -2.125 C 11.703125 -2.070312 11.832031 -2.046875 11.96875 -2.046875 C 12.101562 -2.046875 12.210938 -2.050781 12.296875 -2.0625 C 12.390625 -2.082031 12.488281 -2.109375 12.59375 -2.140625 L 12.734375 -2.09375 L 13.078125 -0.140625 C 12.953125 -0.0546875 12.773438 0.00390625 12.546875 0.046875 C 12.316406 0.0976562 12.0625 0.125 11.78125 0.125 C 11.3125 0.125 10.894531 0.046875 10.53125 -0.109375 C 10.164062 -0.265625 9.820312 -0.503906 9.5 -0.828125 L 9.296875 -0.828125 C 8.492188 -0.140625 7.34375 0.203125 5.84375 0.203125 Z M 5.828125 -9.15625 C 6.429688 -9.445312 6.867188 -9.75 7.140625 -10.0625 C 7.421875 -10.375 7.5625 -10.757812 7.5625 -11.21875 C 7.5625 -11.625 7.441406 -11.9375 7.203125 -12.15625 C 6.972656 -12.375 6.660156 -12.484375 6.265625 -12.484375 C 5.859375 -12.484375 5.53125 -12.363281 5.28125 -12.125 C 5.039062 -11.894531 4.921875 -11.570312 4.921875 -11.15625 C 4.921875 -10.84375 4.984375 -10.546875 5.109375 -10.265625 C 5.242188 -9.992188 5.484375 -9.625 5.828125 -9.15625 Z M 6.1875 -2.125 C 6.8125 -2.125 7.34375 -2.242188 7.78125 -2.484375 L 4.609375 -6.53125 C 4.234375 -6.28125 3.953125 -5.984375 3.765625 -5.640625 C 3.585938 -5.304688 3.5 -4.914062 3.5 -4.46875 C 3.5 -4 3.609375 -3.585938 3.828125 -3.234375 C 4.046875 -2.878906 4.359375 -2.601562 4.765625 -2.40625 C 5.171875 -2.21875 5.644531 -2.125 6.1875 -2.125 Z M 6.1875 -2.125 "/></g></g></g><g fill="#004aad" fill-opacity="1"><g transform="translate(217.533281, 194.624987)"><g/></g></g><g fill="#004aad" fill-opacity="1"><g transform="translate(222.248247, 194.624987)"><g><path d="M 11.453125 -14.28125 L 11.453125 -11.90625 L 7.328125 -11.90625 L 7.328125 0 L 4.515625 0 L 4.515625 -11.90625 L 0.390625 -11.90625 L 0.390625 -14.28125 Z M 11.453125 -14.28125 "/></g></g></g><g fill="#004aad" fill-opacity="1"><g transform="translate(234.07956, 194.624987)"><g><path d="M 4.671875 -6.265625 L 4.671875 -2.359375 L 11.5 -2.359375 L 11.5 0 L 1.859375 0 L 1.859375 -14.28125 L 11.34375 -14.28125 L 11.34375 -11.921875 L 4.671875 -11.921875 L 4.671875 -8.578125 L 10.5 -8.578125 L 10.5 -6.265625 Z M 4.671875 -6.265625 "/></g></g></g><g fill="#004aad" fill-opacity="1"><g transform="translate(246.350143, 194.624987)"><g><path d="M 7.796875 0.203125 C 6.484375 0.203125 5.328125 -0.0664062 4.328125 -0.609375 C 3.328125 -1.160156 2.539062 -1.984375 1.96875 -3.078125 C 1.40625 -4.179688 1.125 -5.535156 1.125 -7.140625 C 1.125 -8.742188 1.40625 -10.09375 1.96875 -11.1875 C 2.539062 -12.289062 3.328125 -13.113281 4.328125 -13.65625 C 5.328125 -14.207031 6.484375 -14.484375 7.796875 -14.484375 C 9.171875 -14.484375 10.335938 -14.210938 11.296875 -13.671875 C 12.265625 -13.140625 12.953125 -12.320312 13.359375 -11.21875 L 11.296875 -9.96875 L 11.0625 -9.96875 C 10.75 -10.707031 10.332031 -11.238281 9.8125 -11.5625 C 9.289062 -11.882812 8.617188 -12.046875 7.796875 -12.046875 C 6.617188 -12.046875 5.695312 -11.65625 5.03125 -10.875 C 4.363281 -10.09375 4.03125 -8.847656 4.03125 -7.140625 C 4.03125 -5.441406 4.363281 -4.195312 5.03125 -3.40625 C 5.695312 -2.625 6.617188 -2.234375 7.796875 -2.234375 C 9.660156 -2.234375 10.800781 -3.132812 11.21875 -4.9375 L 11.453125 -4.9375 L 13.53125 -3.859375 C 13.144531 -2.503906 12.476562 -1.488281 11.53125 -0.8125 C 10.59375 -0.132812 9.347656 0.203125 7.796875 0.203125 Z M 7.796875 0.203125 "/></g></g></g><g fill="#004aad" fill-opacity="1"><g transform="translate(260.348578, 194.624987)"><g><path d="M 11.078125 -8.90625 L 11.078125 -14.28125 L 13.890625 -14.28125 L 13.890625 0 L 11.078125 0 L 11.078125 -6.5 L 4.671875 -6.5 L 4.671875 0 L 1.859375 0 L 1.859375 -14.28125 L 4.671875 -14.28125 L 4.671875 -8.90625 Z M 11.078125 -8.90625 "/></g></g></g><g fill="#004aad" fill-opacity="1"><g transform="translate(276.094388, 194.624987)"><g><path d="M 4.59375 0 L 1.859375 0 L 1.859375 -14.28125 L 5.09375 -14.28125 L 10.828125 -5.078125 L 11.078125 -5.125 L 11.078125 -14.28125 L 13.796875 -14.28125 L 13.796875 0 L 10.90625 0 L 4.828125 -9.828125 L 4.59375 -9.78125 Z M 4.59375 0 "/></g></g></g><g fill="#004aad" fill-opacity="1"><g transform="translate(291.742581, 194.624987)"><g><path d="M 7.78125 0.203125 C 6.476562 0.203125 5.328125 -0.0625 4.328125 -0.59375 C 3.328125 -1.125 2.539062 -1.9375 1.96875 -3.03125 C 1.40625 -4.132812 1.125 -5.503906 1.125 -7.140625 C 1.125 -8.773438 1.40625 -10.140625 1.96875 -11.234375 C 2.539062 -12.328125 3.328125 -13.140625 4.328125 -13.671875 C 5.328125 -14.210938 6.476562 -14.484375 7.78125 -14.484375 C 9.09375 -14.484375 10.242188 -14.21875 11.234375 -13.6875 C 12.234375 -13.15625 13.015625 -12.335938 13.578125 -11.234375 C 14.140625 -10.140625 14.421875 -8.773438 14.421875 -7.140625 C 14.421875 -5.503906 14.140625 -4.132812 13.578125 -3.03125 C 13.015625 -1.9375 12.234375 -1.125 11.234375 -0.59375 C 10.242188 -0.0625 9.09375 0.203125 7.78125 0.203125 Z M 7.78125 -2.25 C 8.988281 -2.25 9.910156 -2.632812 10.546875 -3.40625 C 11.191406 -4.1875 11.515625 -5.429688 11.515625 -7.140625 C 11.515625 -8.847656 11.191406 -10.09375 10.546875 -10.875 C 9.910156 -11.65625 8.988281 -12.046875 7.78125 -12.046875 C 6.5625 -12.046875 5.628906 -11.65625 4.984375 -10.875 C 4.347656 -10.09375 4.03125 -8.847656 4.03125 -7.140625 C 4.03125 -5.429688 4.347656 -4.1875 4.984375 -3.40625 C 5.628906 -2.632812 6.5625 -2.25 7.78125 -2.25 Z M 7.78125 -2.25 "/></g></g></g><g fill="#004aad" fill-opacity="1"><g transform="translate(307.293132, 194.624987)"><g><path d="M 4.671875 -14.28125 L 4.671875 -2.359375 L 11.09375 -2.359375 L 11.09375 0 L 1.859375 0 L 1.859375 -14.28125 Z M 4.671875 -14.28125 "/></g></g></g><g fill="#004aad" fill-opacity="1"><g transform="translate(318.851115, 194.624987)"><g><path d="M 7.78125 0.203125 C 6.476562 0.203125 5.328125 -0.0625 4.328125 -0.59375 C 3.328125 -1.125 2.539062 -1.9375 1.96875 -3.03125 C 1.40625 -4.132812 1.125 -5.503906 1.125 -7.140625 C 1.125 -8.773438 1.40625 -10.140625 1.96875 -11.234375 C 2.539062 -12.328125 3.328125 -13.140625 4.328125 -13.671875 C 5.328125 -14.210938 6.476562 -14.484375 7.78125 -14.484375 C 9.09375 -14.484375 10.242188 -14.21875 11.234375 -13.6875 C 12.234375 -13.15625 13.015625 -12.335938 13.578125 -11.234375 C 14.140625 -10.140625 14.421875 -8.773438 14.421875 -7.140625 C 14.421875 -5.503906 14.140625 -4.132812 13.578125 -3.03125 C 13.015625 -1.9375 12.234375 -1.125 11.234375 -0.59375 C 10.242188 -0.0625 9.09375 0.203125 7.78125 0.203125 Z M 7.78125 -2.25 C 8.988281 -2.25 9.910156 -2.632812 10.546875 -3.40625 C 11.191406 -4.1875 11.515625 -5.429688 11.515625 -7.140625 C 11.515625 -8.847656 11.191406 -10.09375 10.546875 -10.875 C 9.910156 -11.65625 8.988281 -12.046875 7.78125 -12.046875 C 6.5625 -12.046875 5.628906 -11.65625 4.984375 -10.875 C 4.347656 -10.09375 4.03125 -8.847656 4.03125 -7.140625 C 4.03125 -5.429688 4.347656 -4.1875 4.984375 -3.40625 C 5.628906 -2.632812 6.5625 -2.25 7.78125 -2.25 Z M 7.78125 -2.25 "/></g></g></g><g fill="#004aad" fill-opacity="1"><g transform="translate(334.401666, 194.624987)"><g><path d="M 6.9375 0.203125 C 5.738281 0.203125 4.707031 -0.0664062 3.84375 -0.609375 C 2.976562 -1.148438 2.304688 -1.96875 1.828125 -3.0625 C 1.359375 -4.164062 1.125 -5.523438 1.125 -7.140625 C 1.125 -8.765625 1.40625 -10.125 1.96875 -11.21875 C 2.539062 -12.320312 3.328125 -13.140625 4.328125 -13.671875 C 5.335938 -14.210938 6.503906 -14.484375 7.828125 -14.484375 C 9.203125 -14.484375 10.367188 -14.226562 11.328125 -13.71875 C 12.296875 -13.207031 12.972656 -12.453125 13.359375 -11.453125 L 11.296875 -10.203125 L 11.0625 -10.21875 C 10.757812 -10.851562 10.34375 -11.316406 9.8125 -11.609375 C 9.289062 -11.898438 8.628906 -12.046875 7.828125 -12.046875 C 6.597656 -12.046875 5.65625 -11.65625 5 -10.875 C 4.351562 -10.101562 4.03125 -8.859375 4.03125 -7.140625 C 4.03125 -5.410156 4.332031 -4.15625 4.9375 -3.375 C 5.550781 -2.59375 6.453125 -2.203125 7.640625 -2.203125 C 8.671875 -2.203125 9.429688 -2.429688 9.921875 -2.890625 C 10.410156 -3.359375 10.65625 -4.050781 10.65625 -4.96875 L 10.65625 -5.59375 L 7.28125 -5.59375 L 7.28125 -7.875 L 13.453125 -7.875 L 13.453125 0 L 10.765625 0 L 10.765625 -1.921875 L 10.5625 -1.9375 C 10.269531 -1.257812 9.820312 -0.734375 9.21875 -0.359375 C 8.625 0.015625 7.863281 0.203125 6.9375 0.203125 Z M 6.9375 0.203125 "/></g></g></g><g fill="#004aad" fill-opacity="1"><g transform="translate(349.288415, 194.624987)"><g><path d="M 7.828125 0 L 5 0 L 5 -5.609375 L 0.0625 -14.28125 L 3.09375 -14.28125 L 6.359375 -8.65625 L 6.609375 -8.65625 L 9.796875 -14.28125 L 12.75 -14.28125 L 7.828125 -5.609375 Z M 7.828125 0 "/></g></g></g><g fill="#004aad" fill-opacity="1"><g transform="translate(161.782025, 206.505968)"><g><path d="M 3.5 0.140625 C 2.65625 0.140625 1.953125 -0.0195312 1.390625 -0.34375 C 0.828125 -0.664062 0.421875 -1.097656 0.171875 -1.640625 L 1.28125 -2.984375 L 1.453125 -2.984375 C 1.628906 -2.546875 1.882812 -2.203125 2.21875 -1.953125 C 2.5625 -1.703125 2.953125 -1.578125 3.390625 -1.578125 C 3.890625 -1.578125 4.257812 -1.71875 4.5 -2 C 4.738281 -2.289062 4.859375 -2.765625 4.859375 -3.421875 L 4.859375 -10 L 6.828125 -10 L 6.828125 -3.390625 C 6.828125 -2.179688 6.550781 -1.289062 6 -0.71875 C 5.457031 -0.144531 4.625 0.140625 3.5 0.140625 Z M 3.5 0.140625 "/></g></g></g><g fill="#004aad" fill-opacity="1"><g transform="translate(169.84393, 206.505968)"><g><path d="M 9.59375 0 L 7.515625 0 L 6.765625 -2.296875 L 2.9375 -2.296875 L 2.1875 0 L 0.15625 0 L 3.609375 -10 L 6.140625 -10 Z M 4.75 -7.90625 L 3.46875 -3.96875 L 6.21875 -3.96875 L 4.921875 -7.90625 Z M 4.75 -7.90625 "/></g></g></g><g fill="#004aad" fill-opacity="1"><g transform="translate(179.579704, 206.505968)"><g><path d="M 3.28125 0 L 1.296875 0 L 1.296875 -10 L 3.28125 -10 Z M 3.28125 0 "/></g></g></g><g fill="#004aad" fill-opacity="1"><g transform="translate(184.157226, 206.505968)"><g><path d="M 5.15625 -10 C 5.875 -10 6.488281 -9.863281 7 -9.59375 C 7.507812 -9.332031 7.890625 -8.96875 8.140625 -8.5 C 8.398438 -8.03125 8.53125 -7.484375 8.53125 -6.859375 C 8.53125 -6.234375 8.398438 -5.6875 8.140625 -5.21875 C 7.890625 -4.75 7.507812 -4.378906 7 -4.109375 C 6.488281 -3.847656 5.875 -3.71875 5.15625 -3.71875 L 3.28125 -3.71875 L 3.28125 0 L 1.296875 0 L 1.296875 -10 Z M 4.90625 -5.296875 C 6 -5.296875 6.546875 -5.816406 6.546875 -6.859375 C 6.546875 -7.898438 6 -8.421875 4.90625 -8.421875 L 3.28125 -8.421875 L 3.28125 -5.296875 Z M 4.90625 -5.296875 "/></g></g></g><g fill="#004aad" fill-opacity="1"><g transform="translate(193.284942, 206.505968)"><g><path d="M 5.296875 0.140625 C 3.921875 0.140625 2.898438 -0.179688 2.234375 -0.828125 C 1.566406 -1.484375 1.234375 -2.457031 1.234375 -3.75 L 1.234375 -10 L 3.171875 -10 L 3.171875 -3.765625 C 3.171875 -3.035156 3.34375 -2.488281 3.6875 -2.125 C 4.039062 -1.757812 4.578125 -1.578125 5.296875 -1.578125 C 6.710938 -1.578125 7.421875 -2.304688 7.421875 -3.765625 L 7.421875 -10 L 9.359375 -10 L 9.359375 -3.75 C 9.359375 -2.457031 9.023438 -1.484375 8.359375 -0.828125 C 7.691406 -0.179688 6.671875 0.140625 5.296875 0.140625 Z M 5.296875 0.140625 "/></g></g></g><g fill="#004aad" fill-opacity="1"><g transform="translate(203.874731, 206.505968)"><g><path d="M 1.296875 0 L 1.296875 -10 L 5.3125 -10 C 6.34375 -10 7.117188 -9.757812 7.640625 -9.28125 C 8.171875 -8.800781 8.4375 -8.144531 8.4375 -7.3125 C 8.4375 -6.707031 8.28125 -6.207031 7.96875 -5.8125 C 7.664062 -5.425781 7.210938 -5.128906 6.609375 -4.921875 L 6.609375 -4.78125 C 6.921875 -4.644531 7.171875 -4.441406 7.359375 -4.171875 C 7.554688 -3.910156 7.742188 -3.515625 7.921875 -2.984375 L 8.921875 0 L 6.890625 0 L 5.90625 -2.984375 C 5.800781 -3.285156 5.6875 -3.519531 5.5625 -3.6875 C 5.4375 -3.851562 5.273438 -3.972656 5.078125 -4.046875 C 4.890625 -4.117188 4.640625 -4.15625 4.328125 -4.15625 L 3.28125 -4.15625 L 3.28125 0 Z M 5.078125 -5.734375 C 6.035156 -5.734375 6.515625 -6.175781 6.515625 -7.0625 C 6.515625 -7.96875 6.035156 -8.421875 5.078125 -8.421875 L 3.28125 -8.421875 L 3.28125 -5.734375 Z M 5.078125 -5.734375 "/></g></g></g></svg>