<svg xmlns="http://www.w3.org/2000/svg" xmlns:xlink="http://www.w3.org/1999/xlink" width="1344" zoomAndPan="magnify" viewBox="0 0 1008 1295.99994" height="1728" preserveAspectRatio="xMidYMid meet" version="1.0"><defs><clipPath id="26909a27a6"><path d="M 185.152344 329.949219 L 822 329.949219 L 822 965.949219 L 185.152344 965.949219 Z M 185.152344 329.949219 " clip-rule="nonzero"/></clipPath></defs><path fill="#c3ddda" d="M 445.335938 720.949219 L 357.28125 722.515625 L 360.949219 750.425781 L 360.949219 806.972656 L 451.804688 835.957031 L 451.804688 750.425781 Z M 445.335938 720.949219 " fill-opacity="1" fill-rule="nonzero"/><path fill="#c3ddda" d="M 534.550781 334.996094 L 278.207031 334.996094 C 255.101562 334.996094 236.378906 353.722656 236.378906 376.828125 L 236.378906 633.207031 C 236.378906 656.300781 255.101562 675.027344 278.207031 675.027344 L 339.261719 675.027344 L 364.796875 701.617188 L 455.640625 712.726562 L 473.496094 675.027344 L 534.550781 675.027344 C 546.03125 675.027344 556.441406 670.398438 563.996094 662.902344 L 581.0625 662.527344 L 576.375 575.617188 L 576.375 376.828125 C 576.375 353.722656 557.652344 334.996094 534.550781 334.996094 Z M 534.550781 334.996094 " fill-opacity="1" fill-rule="nonzero"/><path fill="#c2e6f9" d="M 393.261719 533.945312 C 396.972656 540.976562 392.59375 550.578125 383.46875 555.398438 C 374.347656 560.21875 363.9375 558.429688 360.230469 551.398438 C 356.507812 544.371094 360.898438 534.765625 370.019531 529.945312 C 379.144531 525.125 389.550781 526.917969 393.261719 533.945312 Z M 393.261719 533.945312 " fill-opacity="1" fill-rule="nonzero"/><path fill="#c2e6f9" d="M 432.449219 518.527344 C 441.6875 518.527344 449.179688 524.179688 449.179688 531.132812 C 449.179688 538.097656 441.6875 543.753906 432.449219 543.753906 C 423.203125 543.753906 415.71875 538.097656 415.71875 531.132812 C 415.71875 524.179688 423.203125 518.527344 432.449219 518.527344 Z M 432.449219 518.527344 " fill-opacity="1" fill-rule="nonzero"/><path fill="#c2e6f9" d="M 397.4375 480.921875 C 406.699219 480.921875 414.195312 486.890625 414.195312 494.234375 C 414.195312 501.59375 406.699219 507.5625 397.4375 507.5625 C 388.191406 507.5625 380.695312 501.59375 380.695312 494.234375 C 380.695312 486.890625 388.191406 480.921875 397.4375 480.921875 Z M 397.4375 480.921875 " fill-opacity="1" fill-rule="nonzero"/><path fill="#c2e6f9" d="M 453.308594 373.179688 L 463.074219 412.742188 C 463.074219 412.742188 436.890625 428.414062 406.371094 428.414062 C 375.863281 428.414062 349.683594 412.742188 349.683594 412.742188 L 359.449219 373.179688 Z M 453.308594 373.179688 " fill-opacity="1" fill-rule="nonzero"/><path fill="#8ecaef" d="M 463.074219 412.742188 L 494.085938 538.402344 C 492.683594 538.679688 491.273438 538.996094 489.859375 539.347656 C 468.523438 544.660156 449.660156 560.902344 433.925781 587.160156 C 425.5625 588.109375 416.390625 588.664062 406.371094 588.664062 C 341.785156 588.664062 312.019531 565.304688 312.019531 565.304688 L 349.683594 412.742188 C 349.683594 412.742188 375.863281 428.414062 406.371094 428.414062 C 436.890625 428.414062 463.074219 412.742188 463.074219 412.742188 Z M 449.179688 531.132812 C 449.179688 524.179688 441.6875 518.527344 432.449219 518.527344 C 423.203125 518.527344 415.71875 524.179688 415.71875 531.132812 C 415.71875 538.097656 423.203125 543.753906 432.449219 543.753906 C 441.6875 543.753906 449.179688 538.097656 449.179688 531.132812 Z M 414.195312 494.234375 C 414.195312 486.890625 406.699219 480.921875 397.4375 480.921875 C 388.191406 480.921875 380.695312 486.890625 380.695312 494.234375 C 380.695312 501.59375 388.191406 507.5625 397.4375 507.5625 C 406.699219 507.5625 414.195312 501.59375 414.195312 494.234375 Z M 383.46875 555.398438 C 392.59375 550.578125 396.972656 540.976562 393.261719 533.945312 C 389.550781 526.917969 379.144531 525.125 370.019531 529.945312 C 360.898438 534.765625 356.507812 544.371094 360.230469 551.398438 C 363.9375 558.429688 374.347656 560.21875 383.46875 555.398438 Z M 383.46875 555.398438 " fill-opacity="1" fill-rule="nonzero"/><path fill="#655f68" d="M 433.925781 587.160156 C 425.625 600.992188 418.191406 617.597656 411.734375 636.855469 L 274.558594 636.855469 L 274.558594 373.179688 L 359.449219 373.179688 L 349.683594 412.742188 L 312.019531 565.304688 C 312.019531 565.304688 341.785156 588.664062 406.371094 588.664062 C 416.390625 588.664062 425.5625 588.109375 433.925781 587.160156 Z M 433.925781 587.160156 " fill-opacity="1" fill-rule="nonzero"/><path fill="#655f68" d="M 538.195312 584.964844 L 538.195312 636.855469 L 449.179688 636.855469 C 462.960938 600.335938 480.03125 578.214844 498.402344 573.632812 C 502.425781 572.636719 506.3125 572.132812 509.957031 572.132812 C 520.882812 572.132812 530.183594 577.003906 538.195312 584.964844 Z M 538.195312 584.964844 " fill-opacity="1" fill-rule="nonzero"/><path fill="#655f68" d="M 538.195312 373.179688 L 538.195312 542.277344 C 529.503906 538.578125 520.226562 536.722656 510.386719 536.722656 C 505.101562 536.722656 499.636719 537.292969 494.085938 538.402344 L 463.074219 412.742188 L 453.308594 373.179688 Z M 538.195312 373.179688 " fill-opacity="1" fill-rule="nonzero"/><path fill="#e7f2f1" d="M 437.347656 675.027344 L 339.261719 675.027344 L 339.261719 750.425781 L 473.496094 750.425781 L 473.496094 675.027344 Z M 437.347656 675.027344 " fill-opacity="1" fill-rule="nonzero"/><path fill="#8ecaef" d="M 451.804688 835.957031 C 457.867188 850.589844 504.144531 866.53125 507.484375 881.613281 C 513.050781 906.753906 507.484375 931.875 473.496094 960.898438 L 190.871094 960.898438 L 190.871094 815.414062 C 241.324219 806.859375 300.210938 804.375 360.949219 806.972656 C 368.445312 807.277344 375.988281 807.679688 383.535156 808.160156 C 395.253906 808.890625 407.015625 809.800781 418.773438 810.898438 C 421.8125 811.175781 424.855469 811.476562 427.894531 811.78125 C 436.273438 812.625 443.640625 817.789062 447.1875 825.433594 C 448.816406 828.941406 450.355469 832.449219 451.804688 835.957031 Z M 451.804688 835.957031 " fill-opacity="1" fill-rule="nonzero"/><path fill="#8ecaef" d="M 796.808594 743.109375 C 792.972656 744.433594 789.628906 747.574219 786.96875 750.933594 C 782.601562 756.421875 775.234375 758.339844 768.699219 755.789062 C 763.007812 753.582031 756.132812 752.230469 750.289062 754.96875 C 737.699219 760.835938 737.9375 786.214844 737.9375 786.214844 L 774.375 960.898438 L 816.683594 960.898438 L 816.683594 747.652344 C 816.683594 747.652344 806.703125 739.6875 796.808594 743.109375 Z M 796.808594 743.109375 " fill-opacity="1" fill-rule="nonzero"/><path fill="#d6eae8" d="M 423.644531 750.425781 C 421.285156 770.050781 419.632812 790.402344 418.773438 810.898438 C 407.015625 809.800781 395.253906 808.890625 383.535156 808.160156 L 383.535156 808.144531 C 384.378906 788.636719 385.917969 769.253906 388.089844 750.425781 C 391.167969 723.761719 395.507812 698.210938 400.972656 675.027344 C 402.460938 668.730469 404.023438 662.597656 405.664062 656.679688 C 407.582031 649.789062 409.601562 643.175781 411.734375 636.855469 C 418.191406 617.597656 425.625 600.992188 433.925781 587.160156 C 449.660156 560.902344 468.523438 544.660156 489.859375 539.347656 C 491.273438 538.996094 492.683594 538.679688 494.085938 538.402344 C 499.636719 537.292969 505.101562 536.722656 510.386719 536.722656 C 520.226562 536.722656 529.503906 538.578125 538.195312 542.277344 C 552.578125 548.382812 565.347656 559.527344 576.375 575.613281 C 577.484375 577.230469 578.570312 578.894531 579.644531 580.613281 C 591.011719 598.796875 599.175781 620.488281 605.699219 641.324219 C 599.96875 660.832031 588.609375 663.984375 571.265625 649.726562 C 563.378906 625.03125 553.019531 599.691406 538.195312 584.964844 C 530.183594 577.003906 520.882812 572.132812 509.957031 572.132812 C 506.3125 572.132812 502.425781 572.636719 498.402344 573.632812 C 480.03125 578.214844 462.960938 600.335938 449.179688 636.855469 C 445.8125 645.777344 442.644531 655.558594 439.707031 666.144531 C 438.898438 669.046875 438.117188 672.011719 437.347656 675.027344 C 431.53125 697.816406 426.910156 723.449219 423.644531 750.425781 Z M 423.644531 750.425781 " fill-opacity="1" fill-rule="nonzero"/><path fill="#d6eae8" d="M 692.691406 798.921875 C 693.511719 806.265625 689.714844 813.445312 682.992188 816.878906 C 650.941406 833.234375 618.152344 841.308594 584.601562 841.105469 C 576.398438 841.058594 569.269531 835.402344 567.328125 827.429688 L 566.632812 824.613281 L 562.128906 806.128906 C 592.617188 773.277344 632.78125 759.324219 687.167969 775.601562 L 692.300781 796.636719 C 692.492188 797.394531 692.617188 798.164062 692.691406 798.921875 Z M 692.691406 798.921875 " fill-opacity="1" fill-rule="nonzero"/><path fill="#e7f2f1" d="M 563.996094 662.902344 L 561.375 652.136719 L 571.265625 649.726562 L 605.699219 641.324219 L 616.914062 638.585938 L 634.640625 711.246094 C 636.496094 718.839844 642.046875 724.988281 649.402344 727.613281 L 666.144531 733.566406 C 673.503906 736.191406 679.054688 742.339844 680.910156 749.933594 L 687.167969 775.601562 C 648.53125 798.253906 606.84375 808.4375 562.128906 806.128906 L 555.859375 780.449219 C 554.003906 772.863281 556.097656 764.851562 561.421875 759.132812 L 573.535156 746.125 C 578.875 740.40625 580.953125 732.394531 579.113281 724.796875 Z M 563.996094 662.902344 " fill-opacity="1" fill-rule="nonzero"/><path fill="#ffd7d2" d="M 566.632812 824.613281 L 567.328125 827.429688 C 569.273438 835.402344 576.398438 841.058594 584.601562 841.105469 C 618.152344 841.308594 650.941406 833.234375 682.992188 816.878906 C 689.714844 813.445312 693.511719 806.265625 692.691406 798.921875 L 692.707031 798.921875 C 707.882812 794.972656 722.949219 790.730469 737.9375 786.214844 C 747.222656 783.414062 757.039062 788.75 759.628906 798.101562 C 766 821.144531 770.691406 844.171875 773.53125 867.191406 C 777.378906 898.460938 777.796875 929.691406 774.375 960.898438 L 473.496094 960.898438 C 473.496094 914.285156 467.96875 874.976562 451.804688 835.957031 C 490.703125 834.003906 528.960938 830.191406 566.632812 824.613281 Z M 566.632812 824.613281 " fill-opacity="1" fill-rule="nonzero"/><g clip-path="url(#26909a27a6)"><path fill="#3a322b" d="M 819.832031 743.707031 C 819.335938 743.3125 807.542969 734.054688 795.160156 738.339844 C 790.917969 739.808594 786.832031 742.992188 783.015625 747.796875 C 780.058594 751.523438 775.039062 752.847656 770.535156 751.089844 C 761.902344 747.722656 754.371094 747.488281 748.15625 750.390625 C 735.910156 756.105469 733.464844 774.203125 732.992188 782.410156 C 720.90625 786.019531 708.683594 789.460938 696.53125 792.683594 L 685.808594 748.734375 C 683.546875 739.460938 676.828125 732.015625 667.839844 728.816406 L 651.09375 722.851562 C 645.316406 720.792969 641 716.007812 639.546875 710.050781 L 621.820312 637.390625 C 621.503906 636.089844 620.679688 634.96875 619.539062 634.273438 C 618.394531 633.574219 617.019531 633.363281 615.71875 633.683594 L 609.074219 635.304688 C 601.261719 611.132812 593.226562 592.8125 583.925781 577.933594 C 583.101562 576.617188 582.261719 575.335938 581.417969 574.074219 L 581.417969 376.824219 C 581.417969 350.976562 560.394531 329.949219 534.550781 329.949219 L 278.203125 329.949219 C 252.359375 329.949219 231.335938 350.976562 231.335938 376.824219 L 231.335938 633.207031 C 231.335938 659.054688 252.359375 680.082031 278.203125 680.082031 L 334.207031 680.082031 L 334.207031 750.433594 C 334.207031 753.222656 336.46875 755.480469 339.253906 755.480469 L 355.894531 755.480469 L 355.894531 801.722656 C 294.894531 799.433594 237.660156 802.375 190.023438 810.445312 C 187.277344 810.910156 185.425781 813.515625 185.890625 816.261719 C 186.355469 819.011719 188.960938 820.863281 191.710938 820.394531 C 256.996094 809.335938 340.691406 808.058594 427.382812 816.796875 C 434.007812 817.464844 439.839844 821.589844 442.609375 827.550781 C 460.722656 866.585938 468.449219 906.464844 468.449219 960.898438 C 468.449219 963.6875 470.710938 965.945312 473.496094 965.945312 C 476.285156 965.945312 478.542969 963.6875 478.542969 960.898438 C 478.542969 912.847656 472.640625 875.730469 459.101562 840.601562 C 493.8125 838.648438 528.664062 835.171875 562.882812 830.238281 C 565.90625 839.625 574.59375 846.089844 584.574219 846.148438 C 584.996094 846.152344 585.417969 846.152344 585.839844 846.152344 C 619.609375 846.152344 653.058594 837.820312 685.28125 821.375 C 692.570312 817.652344 697.140625 810.5625 697.777344 802.796875 C 711.644531 799.136719 725.621094 795.199219 739.390625 791.042969 C 742.597656 790.070312 745.980469 790.429688 748.90625 792.042969 C 751.800781 793.640625 753.878906 796.265625 754.757812 799.441406 C 761.140625 822.503906 765.769531 845.507812 768.515625 867.808594 C 772.375 899.140625 772.65625 930.277344 769.351562 960.347656 C 769.046875 963.117188 771.046875 965.613281 773.820312 965.914062 C 774.003906 965.9375 774.191406 965.945312 774.375 965.945312 C 776.914062 965.945312 779.101562 964.03125 779.386719 961.449219 C 782.773438 930.605469 782.488281 898.683594 778.535156 866.574219 C 775.726562 843.78125 771 820.289062 764.484375 796.746094 C 762.875 790.929688 759.074219 786.121094 753.78125 783.203125 C 750.503906 781.398438 746.921875 780.464844 743.292969 780.417969 C 744.058594 772.964844 746.429688 762.335938 752.421875 759.539062 C 756.933594 757.433594 762.765625 758.898438 766.867188 760.496094 C 775.523438 763.867188 785.191406 761.289062 790.917969 754.078125 C 793.488281 750.84375 796.097656 748.699219 798.464844 747.878906 C 805.550781 745.417969 813.46875 751.542969 813.53125 751.59375 C 815.710938 753.335938 818.886719 752.980469 820.625 750.800781 C 822.363281 748.625 822.007812 745.449219 819.832031 743.707031 Z M 278.203125 669.988281 C 257.925781 669.988281 241.429688 653.488281 241.429688 633.207031 L 241.429688 376.824219 C 241.429688 356.539062 257.925781 340.042969 278.203125 340.042969 L 534.550781 340.042969 C 554.828125 340.042969 571.324219 356.539062 571.324219 376.824219 L 571.324219 560.863281 C 562.800781 551.160156 553.429688 543.859375 543.242188 538.988281 L 543.242188 373.179688 C 543.242188 370.390625 540.980469 368.132812 538.195312 368.132812 L 274.558594 368.132812 C 271.773438 368.132812 269.511719 370.390625 269.511719 373.179688 L 269.511719 636.851562 C 269.511719 639.636719 271.773438 641.898438 274.558594 641.898438 L 404.785156 641.898438 L 397.003906 669.988281 Z M 308.90625 569.28125 C 310.179688 570.277344 340.796875 593.714844 406.375 593.714844 C 412.632812 593.714844 418.796875 593.472656 424.832031 593.039062 C 418.730469 604.433594 413.152344 617.375 408.132812 631.804688 L 279.605469 631.804688 L 279.605469 378.226562 L 353.003906 378.226562 L 307.125 564.101562 C 306.648438 566.027344 307.347656 568.054688 308.90625 569.28125 Z M 406.378906 583.617188 C 355.039062 583.617188 326.199219 568.371094 317.769531 563.101562 L 353.03125 420.234375 C 362.746094 425 383.226562 433.457031 406.378906 433.457031 C 429.53125 433.457031 450.011719 425 459.722656 420.234375 L 487.960938 534.644531 C 466.226562 540.292969 447.03125 556.488281 430.984375 582.371094 C 423.054688 583.183594 414.800781 583.617188 406.378906 583.617188 Z M 355.515625 410.167969 L 363.398438 378.226562 L 449.355469 378.226562 L 457.238281 410.167969 C 449.53125 414.113281 429.0625 423.363281 406.378906 423.363281 C 383.691406 423.359375 363.21875 414.113281 355.515625 410.167969 Z M 459.75 378.226562 L 533.144531 378.226562 L 533.144531 535.039062 C 525.917969 532.808594 518.332031 531.675781 510.386719 531.675781 C 506.292969 531.675781 502.105469 532.003906 497.859375 532.632812 Z M 378.75 802.8125 C 374.480469 802.566406 370.226562 802.347656 365.988281 802.148438 L 365.988281 755.480469 L 382.457031 755.480469 C 380.785156 770.980469 379.542969 786.835938 378.75 802.8125 Z M 344.300781 745.386719 L 344.300781 680.082031 L 394.636719 680.082031 C 390.109375 700.382812 386.398438 722.421875 383.617188 745.386719 Z M 388.824219 803.441406 C 391.4375 750.617188 399.097656 699.152344 410.527344 658.027344 C 428.832031 592.167969 456.6875 552.820312 491.085938 544.25 C 497.679688 542.605469 504.175781 541.769531 510.390625 541.769531 C 536.285156 541.769531 558.148438 555.738281 575.367188 583.285156 C 584.128906 597.304688 591.765625 614.695312 599.242188 637.703125 L 574.621094 643.714844 C 563.308594 609.535156 544.460938 567.082031 509.953125 567.082031 C 505.898438 567.082031 501.601562 567.640625 497.183594 568.738281 C 472.128906 574.984375 450.570312 608.199219 434.84375 664.785156 C 423.820312 704.441406 416.464844 754.1875 413.988281 805.394531 C 405.558594 804.652344 397.164062 803.996094 388.824219 803.441406 Z M 556.476562 653.335938 L 558.394531 661.199219 C 551.746094 666.878906 543.390625 669.988281 534.550781 669.988281 L 443.898438 669.988281 L 452.722656 641.898438 L 538.191406 641.898438 C 540.980469 641.898438 543.238281 639.636719 543.238281 636.851562 L 543.238281 598.988281 C 552.523438 612.480469 559.488281 630.199219 564.78125 646.117188 L 560.183594 647.238281 C 557.472656 647.898438 555.8125 650.628906 556.476562 653.335938 Z M 468.453125 680.082031 L 468.453125 745.386719 L 429.371094 745.386719 C 432.371094 722.101562 436.394531 700.023438 441.292969 680.082031 Z M 456.628906 631.804688 C 469.199219 601.269531 484.230469 582.371094 499.621094 578.535156 C 503.242188 577.632812 506.71875 577.175781 509.953125 577.175781 C 518.753906 577.175781 526.429688 580.976562 533.144531 587.132812 L 533.144531 631.804688 Z M 446.761719 815.894531 C 442.027344 810.808594 435.511719 807.472656 428.394531 806.753906 C 426.945312 806.609375 425.496094 806.472656 424.046875 806.332031 C 424.867188 789.09375 426.246094 772.035156 428.144531 755.480469 L 446.761719 755.480469 Z M 456.855469 830.617188 L 456.855469 755.480469 L 473.5 755.480469 C 476.285156 755.480469 478.546875 753.222656 478.546875 750.433594 L 478.546875 680.082031 L 534.550781 680.082031 C 544.132812 680.082031 553.273438 677.214844 561.003906 671.902344 L 574.203125 726 C 575.65625 731.957031 574.03125 738.195312 569.847656 742.679688 L 557.730469 755.691406 C 551.226562 762.671875 548.695312 772.375 550.957031 781.644531 L 560.410156 820.394531 C 526.257812 825.285156 491.480469 828.71875 456.855469 830.617188 Z M 566.128906 801.242188 L 560.761719 779.25 C 559.308594 773.292969 560.933594 767.058594 565.117188 762.570312 L 577.234375 749.5625 C 583.738281 742.582031 586.269531 732.875 584.007812 723.605469 L 567.476562 655.847656 L 613.207031 644.6875 L 629.742188 712.445312 C 632 721.714844 638.71875 729.160156 647.707031 732.363281 L 664.453125 738.328125 C 670.230469 740.382812 674.546875 745.167969 676 751.128906 L 681.363281 773.117188 C 645.746094 793.242188 607.015625 802.699219 566.128906 801.242188 Z M 680.695312 812.386719 C 649.523438 828.292969 617.21875 836.210938 584.636719 836.058594 C 578.730469 836.023438 573.628906 831.980469 572.226562 826.234375 L 568.609375 811.414062 C 570.507812 811.457031 572.40625 811.488281 574.296875 811.488281 C 612.992188 811.488281 649.761719 802.011719 683.847656 783.28125 L 687.398438 797.839844 C 688.820312 803.664062 686.0625 809.644531 680.695312 812.386719 Z M 680.695312 812.386719 " fill-opacity="1" fill-rule="nonzero"/></g><path fill="#3a322b" d="M 551.363281 849.5625 C 540.390625 857.183594 527.835938 860.242188 512.972656 858.949219 C 510.191406 858.699219 507.746094 860.757812 507.5 863.535156 C 507.257812 866.3125 509.3125 868.761719 512.085938 869.003906 C 514.53125 869.21875 516.933594 869.328125 519.296875 869.328125 C 533.449219 869.328125 546.144531 865.480469 557.121094 857.855469 C 559.410156 856.265625 559.980469 853.121094 558.386719 850.832031 C 556.800781 848.542969 553.652344 847.972656 551.363281 849.5625 Z M 551.363281 849.5625 " fill-opacity="1" fill-rule="nonzero"/><path fill="#3a322b" d="M 384.527344 522.527344 C 379.042969 521.585938 373.058594 522.636719 367.664062 525.484375 C 362.273438 528.335938 358.03125 532.691406 355.71875 537.75 C 353.238281 543.179688 353.253906 549.015625 355.761719 553.761719 C 358.960938 559.816406 365.625 563.121094 373.035156 563.121094 C 377.222656 563.121094 381.648438 562.066406 385.824219 559.863281 C 385.824219 559.863281 385.824219 559.859375 385.824219 559.859375 C 397.390625 553.746094 402.730469 541.0625 397.726562 531.585938 C 395.21875 526.839844 390.410156 523.539062 384.527344 522.527344 Z M 381.109375 550.933594 C 374.570312 554.386719 367.050781 553.523438 364.6875 549.042969 C 363.273438 546.371094 364.214844 543.445312 364.898438 541.945312 C 366.269531 538.945312 368.996094 536.199219 372.378906 534.410156 C 375.003906 533.023438 377.878906 532.289062 380.554688 532.289062 C 381.328125 532.289062 382.085938 532.351562 382.820312 532.476562 C 384.445312 532.757812 387.390625 533.625 388.800781 536.300781 C 391.167969 540.777344 387.644531 547.480469 381.109375 550.933594 Z M 381.109375 550.933594 " fill-opacity="1" fill-rule="nonzero"/><path fill="#3a322b" d="M 454.230469 531.140625 C 454.230469 521.40625 444.457031 513.484375 432.449219 513.484375 C 420.4375 513.484375 410.667969 521.40625 410.667969 531.140625 C 410.667969 540.875 420.4375 548.792969 432.449219 548.792969 C 444.457031 548.792969 454.230469 540.875 454.230469 531.140625 Z M 420.761719 531.140625 C 420.761719 527.113281 426.222656 523.582031 432.449219 523.582031 C 438.671875 523.582031 444.136719 527.113281 444.136719 531.140625 C 444.136719 535.167969 438.675781 538.699219 432.449219 538.699219 C 426.222656 538.699219 420.761719 535.167969 420.761719 531.140625 Z M 420.761719 531.140625 " fill-opacity="1" fill-rule="nonzero"/><path fill="#3a322b" d="M 419.242188 494.238281 C 419.242188 484.113281 409.460938 475.875 397.441406 475.875 C 385.421875 475.875 375.644531 484.113281 375.644531 494.238281 C 375.644531 504.367188 385.421875 512.605469 397.441406 512.605469 C 409.464844 512.605469 419.242188 504.367188 419.242188 494.238281 Z M 397.441406 502.507812 C 391.097656 502.507812 385.738281 498.722656 385.738281 494.238281 C 385.738281 489.757812 391.097656 485.96875 397.441406 485.96875 C 403.785156 485.96875 409.144531 489.757812 409.144531 494.238281 C 409.148438 498.722656 403.785156 502.507812 397.441406 502.507812 Z M 397.441406 502.507812 " fill-opacity="1" fill-rule="nonzero"/></svg>